<?xml version="1.0" encoding="UTF-8"?>
<!-- Generator: visioncortex VTracer 0.6.5 -->
<svg version="1.1" xmlns="http://www.w3.org/2000/svg" width="1312" height="784">
<path d="M0 0 C8.8 -0.07 17.6 -0.12 26.4 -0.16 C30.48 -0.17 34.57 -0.19 38.66 -0.23 C70.53 -0.49 103.03 0.34 128.38 22.41 C147.29 41.07 155 64.98 155.31 91.19 C155.12 118.42 147.14 145.59 130 167 C129.57 167.55 129.14 168.09 128.7 168.66 C107.86 195.02 76.99 210.18 44 215 C45.44 219.44 47.89 222.5 50.94 225.94 C54.89 230.5 58.73 235.11 62.44 239.88 C66.26 244.78 70.11 249.65 74 254.5 C77.83 259.27 81.62 264.06 85.38 268.88 C89.52 274.18 93.77 279.38 98.06 284.56 C103.15 290.7 108.09 296.92 112.91 303.27 C114.33 305.12 115.78 306.94 117.27 308.73 C119 311 119 311 119 313 C119.66 313 120.32 313 121 313 C122.26 314.37 122.26 314.37 123.69 316.3 C124.22 317 124.75 317.71 125.29 318.44 C125.85 319.2 126.42 319.96 127 320.75 C132.46 328.03 138.13 335.05 144 342 C160 361.32 160 361.32 160 363 C146.48 363.26 132.97 363.45 119.45 363.57 C113.17 363.63 106.89 363.7 100.62 363.83 C94.55 363.95 88.49 364.02 82.43 364.04 C80.12 364.06 77.81 364.1 75.5 364.16 C56.46 364.63 56.46 364.63 51.4 360.61 C48.8 358.03 46.88 355.14 45 352 C44.03 350.77 43.05 349.55 42.04 348.36 C41.24 347.31 40.45 346.26 39.62 345.19 C35.88 340.33 32.02 335.63 28 331 C23.53 325.85 19.26 320.57 15.07 315.18 C11.98 311.2 8.78 307.33 5.5 303.5 C1.18 298.45 -2.99 293.3 -7.06 288.04 C-9.16 285.33 -11.29 282.66 -13.5 280.04 C-14.25 279.16 -14.99 278.28 -15.75 277.38 C-16.4 276.62 -17.06 275.86 -17.73 275.09 C-19 273 -19 273 -18.83 270.84 C-17.73 268.41 -16.21 267.43 -14 266 C-14.14 265.38 -14.14 265.38 -14.88 262.25 C-15.25 260.5 -15.63 258.75 -16 257 C-16.2 256.11 -16.39 255.23 -16.59 254.32 C-18.11 246.59 -17.85 239.83 -16.75 232.06 C-16.61 230.97 -16.48 229.87 -16.34 228.74 C-15.13 219.45 -15.13 219.45 -13 215 C-11.09 213.94 -11.09 213.94 -9 213 C-7.35 211.21 -7.35 211.21 -5.62 208.94 C-4.93 208.04 -4.23 207.15 -3.52 206.23 C-3.32 205.97 -3.32 205.97 -2.32 204.69 C0.28 201.36 2.95 198.08 5.62 194.81 C5.92 194.45 5.92 194.45 7.41 192.62 C12.26 186.74 17.41 181.19 22.82 175.82 C24.53 174.07 24.53 174.07 27 171 C26.71 167.77 25.4 165.98 23.28 163.62 C22.74 163.01 22.2 162.4 21.65 161.77 C21.08 161.14 20.52 160.52 19.94 159.88 C18.82 158.63 17.7 157.37 16.59 156.12 C16.09 155.57 15.6 155.02 15.09 154.45 C14 153 14 153 14 151 C15.27 150.76 16.53 150.52 17.84 150.27 C35.53 146.78 35.53 146.78 42 143 C42.74 142.58 43.48 142.16 44.25 141.73 C55.94 134.57 62.64 124.29 65.88 111.12 C68.01 99.83 66.84 87.64 60.55 77.72 C58.24 75.16 56.22 75.02 52.85 74.77 C51.58 74.71 50.3 74.66 49 74.61 C47.6 74.54 46.21 74.47 44.81 74.4 C42.62 74.29 40.43 74.19 38.23 74.1 C36.11 74.02 33.99 73.91 31.87 73.79 C30.6 73.74 29.33 73.68 28.03 73.62 C25 73 25 73 23.6 71.17 C22.69 67.89 22.42 64.57 22.12 61.19 C20.09 41.73 13.27 19.56 1.26 3.7 C0 2 0 2 0 0 Z " fill="#8635B6" transform="translate(732,218)"/>
<path d="M0 0 C0.65 0.33 1.3 0.66 1.97 0.99 C4.4 2.47 5.59 3.51 7 6 C7.27 11.69 6.11 17.11 5.06 22.69 C4.77 24.41 4.48 26.13 4.19 27.85 C3.54 31.71 2.86 35.56 2.17 39.41 C0.85 46.77 -0.38 54.15 -1.62 61.52 C-2.07 64.2 -2.52 66.88 -2.97 69.56 C-3.08 70.22 -3.19 70.88 -3.3 71.57 C-4.68 79.79 -6.1 88.01 -7.52 96.23 C-7.61 96.76 -7.61 96.76 -8.06 99.42 C-8.15 99.91 -8.15 99.91 -8.58 102.37 C-8.94 104.61 -9.19 106.82 -9.41 109.08 C-10 112 -10 112 -11.56 113.71 C-12.23 114.1 -12.9 114.49 -13.59 114.89 C-13.96 115.12 -13.96 115.12 -15.88 116.27 C-16.7 116.74 -17.53 117.21 -18.38 117.69 C-20.1 118.72 -21.83 119.75 -23.55 120.78 C-24.44 121.3 -25.34 121.83 -26.26 122.37 C-31.6 125.55 -36.8 128.97 -42.03 132.34 C-42.79 132.82 -43.54 133.3 -44.32 133.8 C-44.98 134.22 -45.65 134.65 -46.33 135.09 C-48 136 -48 136 -50 136 C-50.23 137.28 -50.45 138.56 -50.69 139.88 C-51.89 145.96 -53.59 151.89 -55.32 157.84 C-55.54 158.59 -55.75 159.35 -55.98 160.12 C-56.17 160.8 -56.37 161.47 -56.57 162.17 C-57 164 -57 164 -57 167 C-56.71 166.39 -56.43 165.78 -56.13 165.15 C-54.82 162.37 -53.5 159.59 -52.19 156.81 C-51.74 155.85 -51.28 154.89 -50.82 153.9 C-50.6 153.44 -50.6 153.44 -49.48 151.08 C-49.28 150.66 -49.28 150.66 -48.26 148.5 C-45.52 143.07 -43.65 140.42 -38.19 137.56 C-30.38 133.36 -22.98 128.58 -15.55 123.75 C-14.65 123.16 -13.74 122.58 -12.81 121.98 C-12 121.45 -11.2 120.93 -10.36 120.39 C-7.97 118.98 -5.6 117.96 -3 117 C-2.92 116.4 -2.92 116.4 -2.5 113.34 C-0.46 98.66 1.92 84.05 4.38 69.44 C4.78 67.04 5.18 64.65 5.58 62.26 C8.28 46.15 11.04 30.06 14 14 C14.99 14.33 15.98 14.66 17 15 C18.85 24.43 16.8 33.77 15.29 43.15 C15.13 44.19 14.96 45.23 14.79 46.31 C14.44 48.52 14.09 50.74 13.73 52.96 C12.82 58.7 11.91 64.44 11.01 70.18 C10.84 71.3 10.66 72.42 10.48 73.58 C9.12 82.21 7.77 90.85 6.5 99.5 C6.34 100.54 6.18 101.59 6.02 102.67 C4.05 116.28 4.05 116.28 5 122 C7.38 125.16 7.38 125.16 10.56 127.5 C11.6 128.29 12.63 129.09 13.69 129.91 C17.08 132.05 20.28 133.53 24 135 C20.65 137.86 17.34 139.04 13.19 140.44 C-4.5 146.76 -20.77 156.8 -36.71 166.59 C-40.33 168.82 -43.98 171 -47.62 173.19 C-48.25 173.56 -48.87 173.94 -49.51 174.32 C-53.77 176.88 -53.77 176.88 -56 178 C-54.27 179.9 -52.54 181.79 -50.81 183.69 C-50.33 184.22 -49.85 184.75 -49.35 185.29 C-46.31 188.62 -43.21 191.84 -40 195 C-39.01 194.34 -38.02 193.68 -37 193 C-35.04 192.77 -35.04 192.77 -32.62 192.81 C-31.65 192.82 -30.68 192.83 -29.68 192.83 C-26.8 192.96 -24 193.2 -21.13 193.51 C-6.74 194.92 1.69 192.59 12.96 183.65 C14.63 182.26 16.26 180.84 17.85 179.37 C20 178 20 178 22.49 178.11 C25.18 179.07 27.22 180.24 29.56 181.88 C30.31 182.39 31.05 182.9 31.82 183.43 C32.54 183.95 33.26 184.47 34 185 C34.75 185.52 35.5 186.04 36.28 186.57 C36.85 187.04 37.41 187.51 38 188 C38 188.66 38 189.32 38 190 C36.61 191.11 36.61 191.11 34.67 192.32 C33.95 192.77 33.23 193.23 32.49 193.7 C31.73 194.17 30.97 194.64 30.19 195.12 C28.72 196.04 27.26 196.96 25.79 197.88 C25.02 198.36 24.24 198.84 23.44 199.34 C21 201 21 201 18.52 203.17 C12.5 208.3 8.33 209.8 0.37 209.19 C-1.65 208.99 -3.67 208.75 -5.69 208.5 C-7.08 208.36 -8.48 208.23 -9.87 208.1 C-13.25 207.77 -16.63 207.41 -20 207 C-20.29 207.77 -20.59 208.54 -20.89 209.33 C-22.17 212.41 -23.81 214.93 -25.69 217.69 C-26.4 218.74 -27.1 219.8 -27.83 220.89 C-29.17 222.81 -30.56 224.71 -32.01 226.55 C-37.13 233.12 -38.36 238.77 -39 247 C-39.05 247.61 -39.05 247.61 -39.33 250.72 C-39.58 253.81 -39.81 256.9 -40 260 C-40.73 259.77 -41.45 259.55 -42.2 259.32 C-45.8 258.91 -46.93 259.83 -49.81 261.94 C-50.6 262.5 -51.39 263.07 -52.21 263.65 C-52.8 264.1 -53.39 264.54 -54 265 C-54.3 264.85 -54.3 264.85 -55.81 264.06 C-58 263 -58 263 -61 262 C-63.04 263.21 -63.04 263.21 -65.19 264.94 C-65.9 265.5 -66.62 266.07 -67.36 266.65 C-67.9 267.1 -68.44 267.54 -69 268 C-72.4 266.39 -75.1 264.41 -78 262 C-78.76 262.33 -79.53 262.66 -80.31 263 C-83 264 -83 264 -86 264 C-88.04 262.77 -89.94 261.39 -91.87 260 C-94.62 258.71 -96.1 259.31 -99 260 C-99.05 259.39 -99.1 258.78 -99.15 258.15 C-99.38 255.37 -99.63 252.59 -99.88 249.81 C-99.95 248.85 -100.03 247.89 -100.11 246.9 C-100.2 245.97 -100.28 245.04 -100.37 244.08 C-100.44 243.23 -100.51 242.37 -100.59 241.5 C-101.35 236.89 -103.26 233.37 -105.9 229.57 C-106.46 228.75 -107.02 227.94 -107.6 227.1 C-108.19 226.26 -108.77 225.43 -109.38 224.56 C-110.53 222.9 -111.68 221.23 -112.84 219.57 C-115.91 215.13 -115.91 215.13 -117.31 213.14 C-120 209.23 -120 209.23 -120 207 C-120.56 207.14 -121.12 207.29 -121.7 207.44 C-132.89 210.17 -144.49 211.96 -154.9 206.05 C-162.66 201.27 -169.92 195.73 -177 190 C-174.05 186.18 -171.21 183.47 -167.25 180.69 C-166.76 180.34 -166.76 180.34 -164.27 178.57 C-163.52 178.05 -162.77 177.54 -162 177 C-161.51 177.33 -161.03 177.66 -160.52 178 C-155.61 181.29 -150.66 184.54 -145.69 187.75 C-145.09 188.14 -144.49 188.53 -143.87 188.93 C-135.57 194.28 -135.57 194.28 -129.96 194.16 C-129 194.15 -128.03 194.13 -127.03 194.11 C-121.22 193.9 -115.43 193.57 -109.63 193.18 C-108.7 193.13 -107.77 193.08 -106.82 193.02 C-105.99 192.97 -105.15 192.92 -104.3 192.86 C-101.74 193.02 -100.19 193.71 -98 195 C-92.63 189.23 -87.38 183.57 -83 177 C-83.7 176.74 -84.4 176.48 -85.12 176.22 C-88.28 174.88 -91.11 173.27 -94.06 171.51 C-95.25 170.8 -96.44 170.09 -97.63 169.39 C-98.25 169.02 -98.87 168.65 -99.51 168.27 C-140.25 144.05 -140.25 144.05 -162 137 C-162 136.34 -162 135.68 -162 135 C-160.02 133.48 -160.02 133.48 -157.38 131.75 C-148.86 125.86 -148.86 125.86 -146 122 C-145.85 119.58 -146.1 117.52 -146.57 115.15 C-147 113 -147 113 -147 109 C-146.34 109 -145.68 109 -145 109 C-145 108.01 -145 107.02 -145 106 C-145.99 106 -146.98 106 -148 106 C-148 103.33 -148 100.67 -148 98 C-148.66 98 -149.32 98 -150 98 C-151.79 82.43 -151.79 82.43 -150.43 78.24 C-149.8 74.94 -150.45 71.88 -151 68.61 C-151.05 68.26 -151.05 68.26 -151.34 66.47 C-151.7 64.23 -152.07 61.99 -152.44 59.75 C-152.68 58.23 -152.93 56.7 -153.17 55.18 C-153.77 51.45 -154.38 47.73 -155 44 C-155.33 44.99 -155.66 45.98 -156 47 C-157.32 46.67 -158.64 46.34 -160 46 C-160 47.32 -160 48.64 -160 50 C-160.66 50 -161.32 50 -162 50 C-162.12 48.87 -162.25 47.73 -162.38 46.56 C-162.58 45.39 -162.79 44.21 -163 43 C-163.66 42.67 -164.32 42.34 -165 42 C-165 41.34 -165 40.68 -165 40 C-165.99 40 -166.98 40 -168 40 C-168.33 39.34 -168.66 38.68 -169 38 C-169.33 38.66 -169.66 39.32 -170 40 C-170.66 39.67 -171.32 39.34 -172 39 C-170.59 36.72 -169.17 34.45 -167.75 32.19 C-167.35 31.54 -166.96 30.9 -166.55 30.24 C-164.35 26.75 -162.45 24.36 -159 22 C-158.3 20.35 -157.63 18.68 -157 17 C-155.38 15.19 -155.38 15.19 -154 14 C-152.54 18.11 -151.53 22.06 -150.83 26.36 C-150.62 27.6 -150.41 28.85 -150.2 30.13 C-149.98 31.48 -149.76 32.83 -149.54 34.18 C-149.31 35.59 -149.07 37.01 -148.84 38.42 C-148.22 42.15 -147.61 45.88 -147 49.61 C-146.39 53.31 -145.78 57.02 -145.16 60.72 C-144.45 65.06 -143.73 69.4 -143.02 73.73 C-141.96 80.24 -140.88 86.74 -139.76 93.24 C-139.57 94.34 -139.38 95.44 -139.19 96.57 C-138.84 98.58 -138.49 100.58 -138.14 102.59 C-137.3 107.47 -136.82 112.04 -137 117 C-136.29 117.26 -135.59 117.52 -134.86 117.79 C-131.79 119.09 -129.11 120.66 -126.28 122.41 C-125.18 123.09 -124.08 123.77 -122.95 124.47 C-121.8 125.19 -120.65 125.91 -119.5 126.62 C-118.95 126.97 -118.95 126.97 -116.14 128.71 C-113.89 130.1 -111.64 131.51 -109.41 132.92 C-107.14 134.31 -104.83 135.62 -102.48 136.87 C-93.75 141.64 -90.24 146.29 -86.69 155.5 C-86.22 156.61 -85.76 157.72 -85.28 158.86 C-84.15 161.56 -83.06 164.27 -82 167 C-82.12 166.4 -82.25 165.79 -82.37 165.17 C-82.54 164.33 -82.71 163.5 -82.88 162.64 C-82.98 162.18 -82.98 162.18 -83.44 159.86 C-83.96 157.21 -84.42 154.56 -84.87 151.89 C-85.2 150.2 -85.54 148.51 -85.88 146.81 C-86 145.96 -86.13 145.11 -86.27 144.24 C-87.15 140.11 -88.04 137.75 -91.43 135.1 C-94.57 133.28 -97.77 131.64 -101 130 C-103.11 128.74 -105.2 127.45 -107.28 126.14 C-108.31 125.5 -109.33 124.86 -110.39 124.2 C-111.42 123.56 -112.44 122.91 -113.5 122.25 C-114.56 121.59 -115.61 120.93 -116.7 120.25 C-117.72 119.62 -118.73 118.98 -119.78 118.33 C-120.69 117.76 -121.6 117.19 -122.53 116.61 C-122.94 116.34 -122.94 116.34 -125 115 C-125.74 114.58 -126.47 114.17 -127.23 113.74 C-129.84 111.18 -130.06 108.32 -130.57 104.85 C-130.69 104.1 -130.82 103.36 -130.94 102.6 C-131.35 100.09 -131.74 97.57 -132.12 95.06 C-132.41 93.28 -132.7 91.5 -132.99 89.72 C-133.63 85.75 -134.27 81.77 -134.9 77.79 C-136.01 70.92 -137.16 64.06 -138.33 57.19 C-139.02 53.1 -139.71 49.01 -140.41 44.91 C-140.98 41.53 -141.55 38.14 -142.13 34.76 C-142.78 30.93 -143.42 27.1 -144.06 23.27 C-144.26 22.12 -144.45 20.97 -144.65 19.78 C-144.83 18.71 -145.01 17.64 -145.19 16.54 C-145.35 15.61 -145.51 14.68 -145.67 13.72 C-146.03 10.76 -146.18 7.98 -146 5 C-144.12 2.98 -144.12 2.98 -141.44 1.19 C-140.43 0.51 -139.42 -0.16 -138.39 -0.86 C-137.26 -1.57 -136.13 -2.29 -135 -3 C-134.42 -3.38 -133.84 -3.75 -133.25 -4.14 C-92.1 -30.82 -39.54 -29.34 0 0 Z " fill="#565A5D" transform="translate(698,198)"/>
<path d="M0 0 C0.33 0 0.66 0 1 0 C1.53 11.12 0.42 20.37 -3 31 C-2.41 31.27 -1.81 31.54 -1.2 31.83 C0.94 32.97 2.42 34.13 4.17 35.79 C4.75 36.34 5.33 36.88 5.92 37.44 C6.53 38.02 7.13 38.59 7.75 39.19 C9 40.37 10.25 41.55 11.51 42.72 C12.11 43.29 12.71 43.85 13.33 44.44 C17.71 48.53 22.18 52.44 27 56 C26.81 57.79 26.81 57.79 26 60 C23.91 61.68 23.91 61.68 21.06 63.44 C15.59 66.93 10.31 70.61 5.06 74.44 C-0.09 78.18 -5.25 81.9 -10.5 85.5 C-18.05 90.69 -25.44 96.08 -32.85 101.45 C-43.12 108.87 -53.47 116.17 -63.83 123.47 C-66.68 125.48 -69.53 127.49 -72.38 129.51 C-73.79 130.5 -75.19 131.49 -76.6 132.48 C-80.3 135.09 -83.99 137.71 -87.67 140.35 C-88.44 140.9 -89.2 141.45 -89.99 142.01 C-91.46 143.06 -92.92 144.11 -94.38 145.17 C-97.81 147.62 -100.95 149.67 -105 151 C-101.3 144.36 -97.06 138.26 -92.53 132.17 C-87.54 125.45 -82.84 118.53 -78.14 111.61 C-75.4 107.57 -72.6 103.56 -69.8 99.57 C-66.01 94.16 -62.25 88.74 -58.48 83.32 C-54.91 78.18 -51.34 73.05 -47.75 67.92 C-41.61 59.12 -35.49 50.31 -29.58 41.35 C-25.06 34.54 -20.31 27.89 -15.58 21.22 C-13.92 18.89 -12.28 16.55 -10.64 14.21 C-10.37 13.83 -10.37 13.83 -8.98 11.85 C-7.93 10.36 -6.88 8.86 -5.83 7.36 C-5.36 6.68 -4.89 6.01 -4.4 5.32 C-3.98 4.72 -3.57 4.13 -3.14 3.52 C-2 2 -2 2 0 0 Z " fill="#8234B0" transform="translate(540,453)"/>
<path d="M0 0 C34.65 0 69.3 0 105 0 C99.58 9.75 99.58 9.75 97 13.88 C82.84 37.49 80.6 63.06 80 90 C77.02 87.7 74.35 85.45 71.94 82.56 C68.76 78.84 65.46 75.26 62.12 71.69 C58.46 67.75 54.93 63.76 51.56 59.56 C46.98 53.85 42.01 48.55 37 43.21 C34.19 40.22 31.48 37.16 28.8 34.05 C26.41 31.33 23.96 28.67 21.5 26 C0 2.61 0 2.61 0 0 Z " fill="#8233B2" transform="translate(421,218)"/>
<path d="M0 0 C8.19 5.66 10.94 9.99 13.35 19.67 C14 22 14 22 15 23 C15.66 20.03 16.32 17.06 17 14 C19.31 14.44 19.31 14.44 22 16 C23.91 19.87 25 23.69 25 28 C28 26 28 26 28.51 23.84 C28.57 23.02 28.63 22.21 28.69 21.38 C28.75 20.56 28.82 19.74 28.89 18.9 C28.92 18.27 28.96 17.65 29 17 C31.88 16.88 31.88 16.88 35 17 C37.35 19.35 37.73 20.96 38.62 24.12 C38.89 25.04 39.15 25.95 39.41 26.88 C39.61 27.58 39.8 28.28 40 29 C42.31 26.69 42.5 25.52 43.12 22.38 C43.29 21.56 43.46 20.74 43.63 19.9 C43.69 19.59 43.69 19.59 44 18 C46.31 17.67 48.62 17.34 51 17 C51.07 17.31 51.07 17.31 51.4 18.9 C51.58 19.72 51.76 20.53 51.94 21.38 C52.11 22.19 52.29 23 52.46 23.84 C53 26 53 26 54 28 C54.3 27.16 54.61 26.31 54.92 25.45 C55.34 24.35 55.76 23.25 56.19 22.12 C56.59 21.03 57 19.94 57.42 18.82 C59 16 59 16 61.68 14.62 C62.44 14.41 63.21 14.21 64 14 C64.16 15.49 64.16 15.49 65 23 C65.66 23 66.32 23 67 23 C67.18 22.19 67.36 21.38 67.55 20.55 C67.8 19.48 68.05 18.41 68.31 17.31 C68.56 16.26 68.8 15.2 69.05 14.11 C70.63 8.92 72.76 5.81 77.19 2.69 C77.9 2.18 78.62 1.66 79.36 1.14 C79.63 0.95 79.63 0.95 81 0 C81.05 0.77 81.1 1.54 81.15 2.34 C81.19 2.84 81.19 2.84 81.38 5.38 C81.41 5.87 81.41 5.87 81.59 8.4 C82 11 82 11 84 13 C83.58 13.15 83.58 13.15 81.44 13.94 C71.39 19.14 65.66 33.78 62.33 44.08 C61.86 45.71 61.43 47.36 61 49 C60.4 48.69 59.8 48.38 59.19 48.06 C53.34 45.22 47.49 45.82 41.12 45.81 C39.94 45.8 38.76 45.79 37.54 45.78 C36.39 45.77 35.25 45.77 34.07 45.77 C33.03 45.77 31.98 45.76 30.91 45.76 C27.89 46.01 25.76 46.82 23 48 C22.01 48 21.02 48 20 48 C19.82 47.32 19.63 46.64 19.44 45.94 C16.79 37.08 12.62 29.57 7.94 21.64 C6.88 19.79 5.91 17.92 5 16 C4.34 16 3.68 16 3 16 C3 15.34 3 14.68 3 14 C1.68 13.34 0.36 12.68 -1 12 C-1.08 7.84 -0.98 4.05 0 0 Z " fill="#56595E" transform="translate(588,493)"/>
<path d="M0 0 C0.66 0.33 1.32 0.66 2 1 C2.66 3.82 3.19 6.58 3.66 9.44 C3.82 10.32 3.97 11.21 4.13 12.13 C4.64 15.08 5.13 18.04 5.62 21 C5.97 23.06 6.32 25.11 6.67 27.17 C7.6 32.64 8.52 38.12 9.43 43.59 C10 47.02 10.58 50.44 11.16 53.87 C12.1 59.48 13.03 65.09 13.96 70.7 C14.32 72.85 14.68 75 15.04 77.15 C15.54 80.17 16.04 83.19 16.53 86.21 C16.68 87.1 16.83 87.99 16.98 88.91 C17.75 93.68 18.15 98.17 18 103 C18.71 103.26 19.41 103.52 20.14 103.79 C23.21 105.09 25.89 106.66 28.72 108.41 C29.82 109.09 30.92 109.77 32.05 110.47 C33.2 111.19 34.35 111.91 35.5 112.62 C36.05 112.97 36.05 112.97 38.86 114.71 C41.11 116.1 43.36 117.51 45.59 118.92 C47.87 120.31 50.18 121.63 52.52 122.88 C61.08 127.58 64.67 132.02 68.19 141.06 C68.41 141.59 68.41 141.59 69.55 144.24 C71.73 149.42 73.62 154.56 75 160 C71.4 158.8 71.13 158.01 69.29 154.81 C68.79 153.95 68.28 153.08 67.76 152.19 C67.24 151.28 66.72 150.37 66.19 149.44 C55.54 130.97 55.54 130.97 46.94 127 C45.61 126.34 44.28 125.68 42.95 125.01 C42.29 124.68 41.63 124.35 40.95 124.01 C35.78 121.33 30.93 118.09 26 115 C24.15 113.87 22.3 112.74 20.44 111.62 C19.67 111.16 18.91 110.7 18.12 110.23 C16 109 16 109 13.79 108.09 C12 107 12 107 11.25 105.23 C10.95 102.55 10.91 99.95 10.94 97.25 C10.95 96.27 10.96 95.28 10.96 94.27 C10.98 93.52 10.99 92.77 11 92 C9.68 92 8.36 92 7 92 C7 89.33 7 86.67 7 84 C6.34 84 5.68 84 5 84 C3.21 68.43 3.21 68.43 4.57 64.24 C5.2 60.94 4.55 57.88 4 54.61 C3.89 53.9 3.78 53.2 3.66 52.47 C3.3 50.23 2.93 47.99 2.56 45.75 C2.32 44.23 2.07 42.7 1.83 41.18 C1.23 37.45 0.62 33.73 0 30 C-0.33 30.99 -0.66 31.98 -1 33 C-2.32 32.67 -3.64 32.34 -5 32 C-5 33.32 -5 34.64 -5 36 C-5.66 36 -6.32 36 -7 36 C-7.06 35.43 -7.06 35.43 -7.38 32.56 C-7.58 31.39 -7.79 30.21 -8 29 C-8.66 28.67 -9.32 28.34 -10 28 C-10 27.34 -10 26.68 -10 26 C-10.99 26 -11.98 26 -13 26 C-13.33 25.34 -13.66 24.68 -14 24 C-14.33 24.66 -14.66 25.32 -15 26 C-15.66 25.67 -16.32 25.34 -17 25 C-15.59 22.72 -14.17 20.45 -12.75 18.19 C-12.35 17.54 -11.96 16.9 -11.55 16.24 C-9.35 12.75 -7.46 10.35 -4 8 C-2.88 5.5 -2.88 5.5 -2 3 C-1.34 2.01 -0.68 1.02 0 0 Z " fill="#7A7C7F" transform="translate(543,212)"/>
<path d="M0 0 C0.5 0.01 0.5 0.01 3.06 0.04 C4.07 0.04 5.08 0.05 6.12 0.06 C6.52 0.07 6.52 0.07 8.5 0.1 C8.99 1.3 9.49 2.49 10 3.73 C10.69 5.37 11.37 7.02 12.06 8.66 C12.42 9.52 12.77 10.37 13.14 11.26 C14.88 15.4 16.66 19.51 18.62 23.56 C18.78 23.9 18.78 23.9 19.61 25.6 C20.51 27.44 21.43 29.27 22.34 31.09 C23.5 34.1 23.5 34.1 23.43 36.24 C22.17 38.74 20.56 40.4 18.56 42.35 C17.85 43.05 17.14 43.76 16.41 44.49 C14.5 46.1 14.5 46.1 12.5 46.1 C11.16 43.81 9.83 41.52 8.5 39.22 C8.11 38.57 7.73 37.92 7.34 37.25 C4.5 32.32 4.5 32.32 4.5 30.1 C3.84 30.1 3.18 30.1 2.5 30.1 C2.37 30.53 2.37 30.53 1.72 32.73 C0.46 36.19 -1.11 38.9 -3.13 41.97 C-3.76 42.94 -4.39 43.91 -5.04 44.9 C-5.53 45.63 -6.01 46.35 -6.5 47.1 C-10.17 43.43 -13.84 39.76 -17.5 36.1 C-15.68 30.24 -13.5 24.78 -10.91 19.22 C-8.95 14.86 -7.2 10.42 -5.47 5.96 C-3.18 0.12 -3.18 0.12 0 0 Z " fill="#191D20" transform="translate(625.50390625,390.90234375)"/>
<path d="M0 0 C0.99 0.33 1.98 0.66 3 1 C4.85 10.43 2.8 19.77 1.29 29.15 C1.21 29.67 1.21 29.67 0.79 32.31 C0.44 34.53 0.09 36.74 -0.27 38.96 C-2.91 55.54 -5.55 72.11 -7.81 88.75 C-8.07 90.64 -8.34 92.52 -8.63 94.4 C-9 97 -9 97 -9.19 99.69 C-9.61 103.62 -10.03 106.09 -12.98 108.85 C-15.64 110.61 -18.35 112.1 -21.19 113.56 C-23.19 114.67 -25.2 115.77 -27.2 116.88 C-27.69 117.14 -27.69 117.14 -30.19 118.48 C-34.03 120.56 -37.77 122.79 -41.5 125.06 C-42.62 125.73 -43.75 126.41 -44.91 127.1 C-45.42 127.41 -45.42 127.41 -48 129 C-49.05 129.63 -50.09 130.25 -51.17 130.9 C-54.26 133.19 -55.83 135.28 -57.81 138.56 C-58.1 139.04 -58.1 139.04 -59.58 141.44 C-61 144 -61 144 -62 147 C-62.66 147 -63.32 147 -64 147 C-64.31 147.78 -64.62 148.57 -64.94 149.38 C-66 152 -66 152 -67 154 C-67.66 154 -68.32 154 -69 154 C-69.29 154.97 -69.58 155.94 -69.88 156.94 C-71 160 -71 160 -73 161 C-72.44 156.77 -71.46 153.39 -69.6 149.56 C-69.12 148.56 -68.64 147.57 -68.15 146.54 C-67.65 145.52 -67.14 144.49 -66.62 143.44 C-66.13 142.41 -65.63 141.38 -65.12 140.32 C-58.64 126.94 -58.64 126.94 -52.19 123.56 C-44.38 119.36 -36.98 114.58 -29.55 109.75 C-28.65 109.16 -27.74 108.58 -26.81 107.98 C-26 107.45 -25.2 106.93 -24.36 106.39 C-21.97 104.98 -19.6 103.96 -17 103 C-16.83 101.79 -16.67 100.58 -16.5 99.34 C-14.46 84.66 -12.08 70.05 -9.62 55.44 C-9.22 53.04 -8.82 50.65 -8.42 48.26 C-5.72 32.15 -2.96 16.06 0 0 Z " fill="#818286" transform="translate(712,212)"/>
<path d="M0 0 C-2.82 24.41 -2.82 24.41 -7.86 30.11 C-9.85 31.62 -11.79 32.83 -14 34 C-14.7 34.57 -15.4 35.15 -16.12 35.74 C-20.63 37.71 -24.44 36.46 -29.12 35.44 C-30.06 35.25 -31 35.06 -31.96 34.86 C-38.53 33.46 -44.84 31.71 -51 29 C-51 28.34 -51 27.68 -51 27 C-48.88 25.57 -46.78 24.27 -44.56 23 C-43.89 22.61 -43.22 22.21 -42.53 21.81 C-41.09 20.96 -39.65 20.13 -38.21 19.29 C-36.05 18.03 -33.9 16.75 -31.75 15.46 C-24.79 11.32 -17.8 7.25 -10.69 3.38 C-10.38 3.2 -10.38 3.2 -8.82 2.34 C-5.51 0.56 -3.86 0 0 0 Z " fill="#802DBC" transform="translate(709,349)"/>
<path d="M0 0 C7.3 2.75 14.22 5.99 21.12 9.62 C22.12 10.15 23.12 10.67 24.14 11.21 C30.31 14.48 36.38 17.88 42.31 21.56 C42.97 21.97 43.63 22.37 44.3 22.79 C47.27 24.68 49.02 26.03 51 29 C20.9 37.99 20.9 37.99 15.68 36.21 C13.53 34.98 11.82 33.66 10 32 C9.09 31.2 8.18 30.39 7.25 29.56 C3.44 24.65 2.45 17.91 1 12 C0.9 11.64 0.9 11.64 0.39 9.84 C-0.31 6.57 -0.06 3.33 0 0 Z " fill="#812EC3" transform="translate(549,349)"/>
<path d="M0 0 C8.8 -0.07 17.6 -0.12 26.4 -0.16 C30.48 -0.17 34.57 -0.19 38.66 -0.23 C95.44 -0.69 95.44 -0.69 109 11 C101.41 11.41 95.66 9.75 88.83 6.48 C85 4.84 81.51 4.5 77.33 4.31 C76.96 4.3 76.96 4.3 75.12 4.21 C66.88 3.88 58.63 3.92 50.39 3.98 C35.56 4.08 20.8 4.03 6 3 C5.67 3.99 5.34 4.98 5 6 C5.61 6.07 6.21 6.13 6.84 6.2 C9 7 9 7 10.41 9.11 C10.81 9.98 11.21 10.85 11.62 11.75 C11.83 12.18 11.83 12.18 12.85 14.36 C13.95 16.89 14.99 19.44 16 22 C16.28 22.65 16.56 23.29 16.85 23.96 C18.9 28.86 19.28 32.7 19 38 C19.66 38 20.32 38 21 38 C21 38.99 21 39.98 21 41 C21.66 41 22.32 41 23 41 C23 41.66 23 42.32 23 43 C23.66 43 24.32 43 25 43 C25.33 51.25 25.66 59.5 26 68 C26.5 68.16 26.5 68.16 29 69 C29 69.66 29 70.32 29 71 C29.99 70.66 30.99 70.33 32.01 69.98 C36.01 68.85 39.76 68.9 43.88 69.25 C44.22 69.28 44.22 69.28 45.99 69.41 C51.17 69.84 56.04 70.43 61 72 C61.33 72.99 61.66 73.98 62 75 C62.66 75 63.32 75 64 75 C68.46 81.61 71.68 90.06 70.57 98.11 C70.38 99.06 70.19 100.02 70 101 C69.97 103.36 70.06 105.69 70.16 108.05 C70 110 70 110 68 112 C67.76 114.17 67.76 114.17 67.69 116.75 C67.27 122.09 65.9 124.38 62 128 C61.34 128 60.68 128 60 128 C60.92 125.17 61.85 122.36 62.99 119.61 C68.09 106.92 67.87 95.26 63.05 82.48 C61.83 79.81 60.76 77.53 58.31 75.82 C55.15 74.7 52.26 74.63 48.9 74.51 C47.51 74.44 46.12 74.38 44.73 74.31 C42.54 74.21 40.36 74.12 38.18 74.05 C36.06 73.97 33.95 73.86 31.84 73.76 C30.57 73.71 29.31 73.66 28.01 73.61 C25 73 25 73 23.6 71.18 C22.69 67.89 22.42 64.57 22.12 61.19 C20.09 41.73 13.27 19.56 1.26 3.7 C0 2 0 2 0 0 Z " fill="#753B9B" transform="translate(732,218)"/>
<path d="M0 0 C0.66 0 1.32 0 2 0 C5 4.38 5 4.38 5 7 C6.32 7.66 7.64 8.32 9 9 C8.67 9.99 8.34 10.98 8 12 C8.99 12.33 9.98 12.66 11 13 C11 13.66 11 14.32 11 15 C11.56 15.21 12.11 15.41 12.69 15.62 C15.97 17.58 17.71 19.94 20 23 C20 23.66 20 24.32 20 25 C20.66 25 21.32 25 22 25 C22.33 25.99 22.66 26.98 23 28 C23.99 28.66 24.98 29.32 26 30 C26 30.66 26 31.32 26 32 C26.5 32.16 26.5 32.16 29 33 C30.19 36.06 30.19 36.06 31 39 C31.66 39 32.32 39 33 39 C33 39.66 33 40.32 33 41 C33.56 41.19 34.11 41.37 34.69 41.56 C38.03 43.64 40.05 46.61 42 50 C42 50.66 42 51.32 42 52 C42.66 52 43.32 52 44 52 C44 52.66 44 53.32 44 54 C44.66 54 45.32 54 46 54 C46 54.66 46 55.32 46 56 C47.32 56.33 48.64 56.66 50 57 C50.16 57.83 50.16 57.83 51 62 C51.66 62 52.32 62 53 62 C53.66 63.65 54.32 65.3 55 67 C55.66 67 56.32 67 57 67 C60.88 73.62 60.88 73.62 62 77 C63.32 77 64.64 77 66 77 C66 77.99 66 78.98 66 80 C70.89 79.88 75.79 79.76 80.68 79.63 C82.34 79.58 84.01 79.54 85.67 79.5 C88.06 79.44 90.46 79.38 92.86 79.32 C93.6 79.3 94.34 79.28 95.1 79.27 C97.96 79.18 100.69 79.06 103.5 78.49 C107.04 77.8 110.55 77.88 114.14 77.9 C114.91 77.9 115.68 77.91 116.48 77.91 C118.92 77.91 121.37 77.92 123.81 77.94 C125.48 77.94 127.14 77.95 128.8 77.95 C132.87 77.96 136.93 77.98 141 78 C141 78.66 141 79.32 141 80 C142.32 80 143.64 80 145 80 C145 79.34 145 78.68 145 78 C149.95 78.33 154.9 78.66 160 79 C159.13 74.66 158.49 72.48 156 69 C155.34 69 154.68 69 154 69 C151.7 67.06 150.22 65.6 149.19 62.75 C147.61 59.1 145.16 56.65 142.46 53.77 C141 52 141 52 141 50 C140.01 50.33 140.01 50.33 135 52 C135.02 50.97 135.04 49.94 135.06 48.88 C135.01 45.45 134.65 42.35 134 39 C137.49 42.41 140.7 45.93 143.81 49.69 C144.25 50.21 144.68 50.74 145.13 51.28 C148.38 55.22 151.59 59.2 154.77 63.2 C156.56 65.45 158.36 67.69 160.16 69.92 C160.44 70.26 160.44 70.26 161.83 71.99 C162.93 73.36 164.04 74.72 165.14 76.09 C169 80.89 169 80.89 169 82 C155.48 82.26 141.97 82.45 128.45 82.57 C122.17 82.63 115.89 82.7 109.62 82.83 C103.55 82.95 97.49 83.02 91.43 83.04 C89.12 83.06 86.81 83.1 84.5 83.16 C65.46 83.63 65.46 83.63 60.4 79.61 C57.8 77.03 55.88 74.14 54 71 C53.03 69.77 52.05 68.55 51.04 67.36 C50.64 66.83 50.64 66.83 48.62 64.19 C44.88 59.33 41.02 54.63 37 50 C32.53 44.85 28.26 39.57 24.07 34.18 C20.98 30.2 17.78 26.33 14.5 22.5 C8.79 15.83 3.38 8.94 -2 2 C-1.34 1.34 -0.68 0.68 0 0 Z " fill="#6D3891" transform="translate(723,499)"/>
<path d="M0 0 C3.73 5.6 4.27 11.46 4 18 C4.71 18.26 5.41 18.52 6.14 18.79 C9.21 20.09 11.89 21.66 14.72 23.41 C15.82 24.09 16.92 24.77 18.05 25.47 C19.2 26.19 20.35 26.91 21.5 27.62 C22.61 28.31 23.72 29 24.86 29.71 C27.11 31.1 29.36 32.51 31.59 33.92 C33.87 35.31 36.18 36.63 38.52 37.88 C47.08 42.58 50.67 47.02 54.19 56.06 C54.64 57.11 55.09 58.16 55.55 59.24 C57.73 64.42 59.62 69.56 61 75 C57.4 73.8 57.13 73.01 55.29 69.81 C54.79 68.95 54.28 68.08 53.76 67.19 C53.24 66.28 52.72 65.37 52.19 64.44 C41.54 45.97 41.54 45.97 32.94 42 C31.61 41.34 30.28 40.68 28.95 40.01 C28.29 39.68 27.63 39.35 26.95 39.01 C21.78 36.33 16.93 33.09 12 30 C10.15 28.87 8.3 27.74 6.44 26.62 C5.67 26.16 4.91 25.7 4.12 25.23 C2 24 2 24 -0.21 23.09 C-2 22 -2 22 -2.73 20.31 C-3.09 17.2 -3.21 14.14 -3.25 11 C-3.26 10.39 -3.26 10.39 -3.33 7.31 C-2.98 3.83 -2.37 2.5 0 0 Z " fill="#808386" transform="translate(557,297)"/>
<path d="M0 0 C34.65 0 69.3 0 105 0 C99.38 10.12 99.38 10.12 96 13 C95.84 12.5 95.84 12.5 95 10 C95.66 10 96.32 10 97 10 C97.33 7.69 97.66 5.38 98 3 C68.3 3 38.6 3 8 3 C7.67 3.99 7.34 4.98 7 6 C7.66 6 8.32 6 9 6 C9 6.66 9 7.32 9 8 C9.66 8 10.32 8 11 8 C11.33 9.32 11.66 10.64 12 12 C12.99 12 13.98 12 15 12 C15.33 13.32 15.66 14.64 16 16 C16.66 16 17.32 16 18 16 C18 16.66 18 17.32 18 18 C18.66 18 19.32 18 20 18 C20 18.66 20 19.32 20 20 C20.66 20 21.32 20 22 20 C22 20.66 22 21.32 22 22 C23.32 22.66 24.64 23.32 26 24 C26 24.66 26 25.32 26 26 C26.66 26 27.32 26 28 26 C37 35.95 37 35.95 37 40 C37.56 40.23 38.11 40.45 38.69 40.69 C42.34 42.76 45.4 45.28 46.81 49.31 C46.87 49.87 46.94 50.43 47 51 C44 51 44 51 41.77 48.88 C40.94 47.93 40.11 46.98 39.25 46 C38.8 45.5 38.36 44.99 37.9 44.47 C36.59 42.99 35.3 41.49 34 40 C32.85 38.69 31.71 37.37 30.56 36.06 C30.02 35.43 29.47 34.81 28.91 34.16 C26.48 31.41 23.99 28.7 21.5 26 C0 2.61 0 2.61 0 0 Z " fill="#6B368E" transform="translate(421,218)"/>
<path d="M0 0 C0.99 0.33 1.98 0.66 3 1 C4.85 10.43 2.8 19.77 1.29 29.15 C1.13 30.19 0.96 31.24 0.79 32.31 C0.44 34.53 0.09 36.74 -0.27 38.96 C-1.18 44.68 -2.09 50.41 -2.99 56.14 C-3.16 57.26 -3.34 58.37 -3.52 59.53 C-5.48 72 -7.29 84.49 -9 97 C-9.33 97 -9.66 97 -10 97 C-10 93.7 -10 90.4 -10 87 C-10.66 87.16 -10.66 87.16 -14 88 C-13.44 76.2 -11.23 64.62 -9.25 53 C-8.89 50.85 -8.53 48.7 -8.16 46.55 C-5.54 31.02 -2.84 15.5 0 0 Z " fill="#74767A" transform="translate(712,212)"/>
<path d="M0 0 C0.49 0.33 0.97 0.66 1.48 1 C6.39 4.29 11.34 7.54 16.31 10.75 C16.91 11.14 17.51 11.53 18.13 11.93 C26.43 17.28 26.43 17.28 32.02 17.16 C32.99 17.14 33.96 17.12 34.96 17.1 C39.87 16.94 44.78 16.74 49.69 16.5 C50.69 16.45 51.69 16.4 52.72 16.36 C55.14 16.24 57.57 16.12 60 16 C60.33 16.99 60.33 16.99 62 22 C22.89 26.67 22.89 26.67 11 17.94 C8.86 16.25 6.82 14.52 4.82 12.66 C2.07 10.15 -0.94 8.11 -4 6 C-3.69 4.12 -3.69 4.12 -3 2 C-2.01 1.34 -1.02 0.68 0 0 Z " fill="#84868A" transform="translate(536,375)"/>
<path d="M0 0 C0.33 0.17 0.33 0.17 2 1 C0.21 6.36 -5.57 8.8 -10.16 11.78 C-11.91 12.94 -13.61 14.16 -15.31 15.4 C-25.33 22.12 -33.34 21.51 -45 20 C-46.74 19.81 -48.48 19.63 -50.21 19.46 C-54.48 19.02 -58.74 18.52 -63 18 C-62.12 14.12 -62.12 14.12 -61 13 C-59.23 12.87 -59.23 12.87 -56.75 12.88 C-55.76 12.87 -54.77 12.87 -53.75 12.87 C-50.83 12.97 -48.02 13.19 -45.12 13.51 C-28.85 15.11 -20.28 11.21 -7.64 1.06 C-5.07 -0.6 -2.94 -0.49 0 0 Z " fill="#818487" transform="translate(722,378)"/>
<path d="M0 0 C1.98 0 3.96 0 6 0 C1.76 4.61 -3.03 7.98 -8.19 11.5 C-9.99 12.75 -11.8 14 -13.61 15.25 C-14.06 15.56 -14.06 15.56 -16.35 17.15 C-20.27 19.89 -24.14 22.69 -28 25.5 C-35.14 30.68 -42.34 35.77 -49.58 40.81 C-53.69 43.68 -57.79 46.56 -61.87 49.48 C-62.25 49.76 -62.25 49.76 -64.2 51.15 C-65.65 52.19 -67.09 53.23 -68.53 54.27 C-71.92 56.69 -75.01 58.68 -79 60 C-75.14 53.07 -70.7 46.7 -65.96 40.36 C-63.19 36.64 -60.54 32.88 -58 29 C-57.25 30.56 -57.25 30.56 -57 33 C-57.96 34.79 -58.93 36.59 -60.01 38.32 C-61.1 40.17 -61.66 41.88 -62 44 C-58.04 42.21 -54.98 40.19 -51.71 37.34 C-47.71 34.21 -43.15 31 -38 31 C-36.79 28.67 -35.83 26.5 -35 24 C-34.32 23.73 -33.64 23.46 -32.94 23.19 C-29.4 21.76 -26.84 19.7 -23.87 17.34 C-22 16 -22 16 -19 15 C-18.69 14.68 -18.69 14.68 -17.12 13.06 C-14.85 10.85 -12.98 9.99 -10 9 C-10 8.34 -10 7.68 -10 7 C-8.32 5.71 -8.32 5.71 -6.12 4.38 C-5.41 3.93 -4.69 3.48 -3.95 3.02 C-2 2 -2 2 0 2 C0 1.34 0 0.68 0 0 Z " fill="#6E3891" transform="translate(514,544)"/>
<path d="M0 0 C-2.82 24.41 -2.82 24.41 -7.86 30.11 C-9.85 31.62 -11.79 32.83 -14 34 C-14.7 34.57 -15.4 35.15 -16.12 35.74 C-20.63 37.71 -24.44 36.46 -29.12 35.44 C-30.06 35.25 -31 35.06 -31.96 34.86 C-38.53 33.46 -44.84 31.71 -51 29 C-51 28.34 -51 27.68 -51 27 C-48.88 25.57 -46.78 24.27 -44.56 23 C-43.89 22.61 -43.22 22.21 -42.53 21.81 C-41.09 20.96 -39.65 20.13 -38.21 19.29 C-36.05 18.03 -33.9 16.75 -31.75 15.46 C-24.79 11.32 -17.8 7.25 -10.69 3.38 C-10.38 3.2 -10.38 3.2 -8.82 2.34 C-5.51 0.56 -3.86 0 0 0 Z M-7 4 C-7 4.66 -7 5.32 -7 6 C-7.86 6.27 -8.73 6.53 -9.62 6.81 C-12.97 7.99 -15.98 9.42 -19.12 11.06 C-24.6 13.91 -24.6 13.91 -27.24 14.5 C-29 15 -29 15 -31 18 C-31.93 18.45 -32.86 18.91 -33.81 19.38 C-37.28 21.14 -39.45 23.07 -42 26 C-42 26.66 -42 27.32 -42 28 C-41.34 28 -40.68 28 -40 28 C-40 28.66 -40 29.32 -40 30 C-37.03 29.67 -34.06 29.34 -31 29 C-31 29.66 -31 30.32 -31 31 C-29.02 31 -27.04 31 -25 31 C-25 31.66 -25 32.32 -25 33 C-23.37 32.69 -21.75 32.38 -20.12 32.06 C-19.22 31.89 -18.32 31.71 -17.38 31.54 C-15 31 -15 31 -13 30 C-13 29.34 -13 28.68 -13 28 C-12.4 27.94 -11.8 27.88 -11.19 27.81 C-8.12 26.67 -7.48 24.82 -6 22 C-5.84 21.83 -5.84 21.83 -5 21 C-4.76 18.14 -4.58 15.3 -4.44 12.44 C-4.42 12.03 -4.42 12.03 -4.31 9.99 C-4.2 8 -4.1 6 -4 4 C-4.99 4 -5.98 4 -7 4 Z " fill="#6A309A" transform="translate(709,349)"/>
<path d="M0 0 C1.39 4.18 -0.18 6.13 -2 10 C-2.66 10 -3.32 10 -4 10 C-4 10.66 -4 11.32 -4 12 C-4.99 12.33 -5.98 12.66 -7 13 C-7.29 13.65 -7.57 14.31 -7.87 14.98 C-9 17 -9 17 -11.38 17.83 C-12.29 17.97 -13.19 18.11 -14.12 18.25 C-15.04 18.4 -15.95 18.55 -16.88 18.7 C-17.58 18.8 -18.28 18.9 -19 19 C-19.33 19.99 -19.66 20.98 -20 22 C-20.78 22.1 -21.57 22.21 -22.38 22.31 C-27.03 23.2 -31.48 24.58 -36 26 C-36 26.99 -36 27.98 -36 29 C-35.36 29.43 -34.72 29.87 -34.06 30.31 C-32 32 -32 32 -31.25 35.19 C-31.21 35.65 -31.21 35.65 -31 38 C-30.34 38 -29.68 38 -29 38 C-28.75 40.25 -28.75 40.25 -29 43 C-30.29 44.37 -31.63 45.71 -33 47 C-33.75 49.25 -33.75 49.25 -34 51 C-34.83 51.17 -34.83 51.17 -39 52 C-39.11 52.54 -39.11 52.54 -39.69 55.25 C-41.15 59.43 -42.41 60.58 -46 63 C-46.33 63.33 -46.33 63.33 -48 65 C-48.66 64.34 -49.32 63.68 -50 63 C-49.06 61.91 -48.13 60.83 -47.19 59.75 C-46.56 59.03 -45.94 58.31 -45.29 57.56 C-43.58 55.64 -41.84 53.78 -40.05 51.94 C-39.55 51.41 -39.04 50.88 -38.52 50.34 C-37.52 49.29 -36.5 48.25 -35.47 47.21 C-34.06 45.73 -34.06 45.73 -32 43 C-32.33 39.78 -33.59 37.99 -35.72 35.62 C-36.26 35.01 -36.8 34.4 -37.35 33.77 C-37.92 33.14 -38.48 32.52 -39.06 31.88 C-40.18 30.63 -41.3 29.37 -42.41 28.12 C-42.91 27.57 -43.4 27.02 -43.91 26.45 C-45 25 -45 25 -45 23 C-43.73 22.76 -42.47 22.52 -41.16 22.27 C-23.47 18.78 -23.47 18.78 -17 15 C-16.26 14.58 -15.52 14.16 -14.75 13.73 C-8.76 10.06 -4.42 5.42 0 0 Z " fill="#713A93" transform="translate(791,346)"/>
<path d="M0 0 C0.33 0 0.66 0 1 0 C1.53 11.12 0.42 20.37 -3 31 C-4.5 28.62 -5.05 27.42 -4.69 24.58 C-4.46 23.73 -4.24 22.88 -4 22 C-3.82 21.12 -3.65 20.23 -3.46 19.32 C-2.98 16.88 -2.49 14.44 -2 12 C-2.66 12 -3.32 12 -4 12 C-5.22 13.53 -5.22 13.53 -6.5 15.5 C-7.78 17.47 -7.78 17.47 -9 19 C-9.66 19 -10.32 19 -11 19 C-11.27 19.73 -11.53 20.46 -11.81 21.21 C-12.99 23.97 -14.36 26.22 -16.06 28.69 C-18.93 32.86 -18.93 32.86 -20 35 C-20.66 35 -21.32 35 -22 35 C-22.27 35.76 -22.54 36.53 -22.81 37.31 C-24 40 -24 40 -25.5 41.44 C-27.63 43.65 -28.16 46.09 -29 49 C-29.99 49 -30.98 49 -32 49 C-32.1 49.73 -32.19 50.45 -32.29 51.2 C-33.1 54.39 -34.29 56.17 -36.31 58.75 C-36.91 59.53 -37.5 60.31 -38.11 61.11 C-40.12 63.12 -41.23 63.63 -44 64 C-42.49 60.8 -40.69 57.9 -38.73 54.96 C-38.07 53.97 -37.42 52.99 -36.75 51.98 C-36.05 50.93 -35.35 49.89 -34.62 48.81 C-33.9 47.73 -33.18 46.66 -32.44 45.55 C-26.91 37.3 -21.25 29.15 -15.48 21.08 C-13.86 18.81 -12.26 16.53 -10.66 14.25 C-10.11 13.47 -9.56 12.68 -9 11.87 C-7.94 10.37 -6.89 8.86 -5.83 7.35 C-5.36 6.68 -4.89 6.01 -4.4 5.32 C-3.98 4.72 -3.57 4.13 -3.14 3.52 C-2 2 -2 2 0 0 Z " fill="#723D94" transform="translate(540,453)"/>
<path d="M0 0 C0.66 0.33 1.32 0.66 2 1 C0.87 4.81 -0.6 8.3 -2.31 11.88 C-12 33.07 -13.49 54.98 -14 78 C-17.3 75.51 -19.9 73.11 -22.31 69.75 C-22.82 69.04 -23.34 68.34 -23.86 67.61 C-24.24 67.08 -24.61 66.55 -25 66 C-20.25 66.88 -20.25 66.88 -18 68 C-17.94 67.38 -17.88 66.77 -17.82 66.13 C-17.73 65.28 -17.65 64.44 -17.56 63.56 C-17.48 62.74 -17.4 61.92 -17.32 61.07 C-17.06 58.62 -16.8 56.18 -16.52 53.73 C-16.17 50.61 -15.85 47.49 -15.54 44.36 C-15.38 42.82 -15.22 41.29 -15.06 39.75 C-14.99 38.97 -14.91 38.2 -14.84 37.4 C-14.41 33.28 -13.81 29.79 -12 26 C-11.34 26 -10.68 26 -10 26 C-9.88 25.32 -9.75 24.64 -9.62 23.94 C-8.91 20.57 -7.97 17.3 -7 14 C-6.34 14 -5.68 14 -5 14 C-4.95 13.66 -4.95 13.66 -4.67 11.95 C-4.59 11.51 -4.59 11.51 -4.19 9.25 C-4.04 8.37 -3.89 7.49 -3.73 6.58 C-2.95 3.81 -1.85 2.17 0 0 Z " fill="#6C3791" transform="translate(515,230)"/>
<path d="M0 0 C0.99 0.33 1.98 0.66 3 1 C5.18 7.41 7.69 16.95 5.02 23.36 C4.68 23.9 4.35 24.44 4 25 C2.68 24.67 1.36 24.34 0 24 C0 25.32 0 26.64 0 28 C-0.66 28 -1.32 28 -2 28 C-2.06 27.43 -2.06 27.43 -2.38 24.56 C-2.58 23.39 -2.79 22.21 -3 21 C-3.66 20.67 -4.32 20.34 -5 20 C-5 19.34 -5 18.68 -5 18 C-5.99 18 -6.98 18 -8 18 C-8.33 17.34 -8.66 16.68 -9 16 C-9.33 16.66 -9.66 17.32 -10 18 C-10.66 17.67 -11.32 17.34 -12 17 C-10.57 14.73 -9.13 12.46 -7.69 10.19 C-7.28 9.54 -6.88 8.9 -6.46 8.24 C-6.07 7.62 -5.67 7 -5.26 6.36 C-5.08 6.07 -5.08 6.07 -4.17 4.63 C-2.92 2.89 -1.54 1.47 0 0 Z " fill="#414247" transform="translate(538,220)"/>
<path d="M0 0 C8.29 -0.09 16.59 -0.16 24.88 -0.21 C28.74 -0.23 32.59 -0.26 36.44 -0.3 C57.95 -0.55 76.92 0.34 97 9 C97 9.33 97 9.66 97 10 C89.41 10.41 83.66 8.75 76.83 5.48 C73 3.85 69.53 3.5 65.35 3.31 C64.62 3.28 63.89 3.25 63.14 3.21 C53.89 2.84 44.63 2.93 35.38 3 C23.53 3.09 11.81 3.01 0 2 C0 1.34 0 0.68 0 0 Z " fill="#783CA3" transform="translate(744,219)"/>
<path d="M0 0 C8.49 8.49 8.16 28.63 8.31 40.19 C8.21 57.18 4.63 73.05 -1 89 C-1.33 89 -1.66 89 -2 89 C-2.33 82.63 -1.32 76.65 1.53 70.93 C3.7 66 3.57 60.87 3.69 55.56 C3.72 54.54 3.76 53.53 3.79 52.48 C3.87 49.99 3.94 47.49 4 45 C4.33 45 4.66 45 5 45 C4.75 35.1 3.73 25.91 1.38 16.28 C0.06 10.73 -0.37 5.73 0 0 Z " fill="#6A378E" transform="translate(879,269)"/>
<path d="M0 0 C1 2 1 2 0.06 5.56 C-1.76 10.27 -4.86 13.46 -8.36 17.02 C-10 19 -10 19 -10 22 C-11.65 22.33 -13.3 22.66 -15 23 C-17.15 35.44 -17.15 35.44 -16.94 40.94 C-16.81 44.94 -17.88 47.56 -20 51 C-19.01 51.33 -18.02 51.66 -17 52 C-17 56.62 -17 61.24 -17 66 C-20.88 62.12 -21.58 56.33 -22 51 C-21.91 43.63 -21.04 36.29 -20 29 C-19.88 28.08 -19.77 27.16 -19.65 26.2 C-18.61 19.47 -18.61 19.47 -15.62 17.18 C-14.76 16.79 -13.89 16.4 -13 16 C-10.94 13.73 -10.94 13.73 -9 11.19 C-8.32 10.31 -7.64 9.43 -6.94 8.52 C-6.3 7.69 -5.66 6.86 -5 6 C-3.35 3.98 -1.68 1.99 0 0 Z " fill="#7A3A9F" transform="translate(736,415)"/>
<path d="M0 0 C27.87 12.8 27.87 12.8 32.88 20.32 C2.7 29.34 2.7 29.34 -2.51 27.46 C-6.11 25.37 -8.97 22.95 -11.12 19.32 C-9.47 19.32 -7.82 19.32 -6.12 19.32 C-6.12 19.98 -6.12 20.64 -6.12 21.32 C2.19 24.36 9.23 24.34 17.88 23.32 C17.88 22.66 17.88 22 17.88 21.32 C19.2 20.83 19.2 20.83 25.88 18.32 C25.2 16.43 25.2 16.43 23.88 14.32 C21.5 13.28 21.5 13.28 18.76 12.57 C17.85 12.33 16.94 12.09 16 11.84 C15.65 11.75 15.65 11.75 13.88 11.32 C13.88 10.66 13.88 10 13.88 9.32 C12.98 9.2 12.07 9.08 11.13 8.95 C8.29 8.4 6.36 7.75 3.88 6.32 C3.88 5.33 3.88 4.34 3.88 3.32 C3.12 3.2 2.36 3.08 1.57 2.95 C-1.12 2.32 -1.12 2.32 -4.12 0.32 C-2.12 -0.68 -2.12 -0.68 0 0 Z " fill="#663195" transform="translate(567.1171875,357.67578125)"/>
<path d="M0 0 C0.9 2.92 1.11 3.73 -0.06 6.69 C-2.11 10.18 -4.3 13.52 -6.6 16.85 C-8 19 -8 19 -8.99 21.05 C-10.11 23.21 -11.44 24.81 -13.06 26.62 C-14.66 28.42 -15.92 29.85 -17 32 C-17.99 32 -18.98 32 -20 32 C-21.06 34.12 -22.11 36.24 -23.15 38.37 C-29.53 51.41 -29.53 51.41 -35 56 C-35.99 56 -36.98 56 -38 56 C-36.18 51.93 -33.6 48.39 -31.06 44.75 C-30.06 43.3 -29.06 41.85 -28.05 40.41 C-27.54 39.67 -27.03 38.93 -26.51 38.18 C-24.66 35.51 -22.83 32.84 -21 30.17 C-14.08 20.06 -7.04 10.03 0 0 Z " fill="#713792" transform="translate(495,517)"/>
<path d="M0 0 C31.68 0 63.36 0 96 0 C97 4 97 4 96 6.14 C95.77 6.49 95.77 6.49 94.56 8.25 C94.33 8.6 94.33 8.6 93.13 10.39 C92.76 10.92 92.38 11.45 92 12 C91.67 11.5 91.67 11.5 90 9 C90.66 9 91.32 9 92 9 C92.33 6.69 92.66 4.38 93 2 C81.3 1.93 69.6 1.88 57.9 1.84 C52.47 1.83 47.04 1.81 41.6 1.77 C36.36 1.74 31.13 1.72 25.89 1.72 C23.88 1.71 21.88 1.7 19.88 1.68 C17.08 1.66 14.29 1.66 11.49 1.66 C11.07 1.65 11.07 1.65 8.96 1.63 C6.66 1.64 6.66 1.64 3 2 C2.67 2.5 2.67 2.5 1 5 C0.83 4.18 0.83 4.18 0 0 Z " fill="#773BA2" transform="translate(426,219)"/>
<path d="M0 0 C3.42 1.47 5.72 3.03 8 6 C8.29 8.89 8.38 11.38 8.25 14.25 C8.23 15 8.21 15.74 8.2 16.51 C8.15 18.34 8.08 20.17 8 22 C6.54 21.69 5.08 21.38 3.62 21.06 C3.22 20.98 3.22 20.98 1.16 20.54 C-1 20 -1 20 -3 19 C-3.21 12.61 -3.23 7.03 -1 1 C-0.67 0.67 -0.34 0.34 0 0 Z " fill="#616468" transform="translate(618,464)"/>
<path d="M0 0 C1.46 0.99 1.46 0.99 3 3 C3.38 5.79 3.6 8.39 3.69 11.19 C3.7 11.56 3.7 11.56 3.79 13.46 C3.87 15.31 3.94 17.15 4 19 C2.73 19.51 1.46 20 0.19 20.5 C-0.52 20.78 -1.23 21.06 -1.96 21.34 C-4 22 -4 22 -7 22 C-7.14 19.25 -7.23 16.5 -7.31 13.75 C-7.35 12.97 -7.4 12.2 -7.44 11.39 C-7.49 9.16 -7.46 7.19 -7 5 C-4.75 2.66 -2.87 1.43 0 0 Z " fill="#5E6267" transform="translate(638,464)"/>
<path d="M0 0 C-1.15 6.16 -2.33 8.66 -7 13 C-9.49 16.51 -11.64 19.91 -13 24 C-13.66 24 -14.32 24 -15 24 C-15.31 24.78 -15.62 25.57 -15.94 26.38 C-17 29 -17 29 -18 31 C-18.66 31 -19.32 31 -20 31 C-20.29 31.97 -20.58 32.94 -20.88 33.94 C-22 37 -22 37 -24 38 C-23.44 33.77 -22.46 30.39 -20.6 26.56 C-20.12 25.56 -19.64 24.57 -19.15 23.54 C-18.65 22.52 -18.14 21.49 -17.62 20.44 C-17.13 19.41 -16.63 18.38 -16.12 17.32 C-7.73 0 -7.73 0 0 0 Z " fill="#7A7C7F" transform="translate(663,335)"/>
<path d="M0 0 C1.65 0 3.3 0 5 0 C-5.88 9.01 -23.84 12.53 -37.53 14.51 C-38.34 14.67 -39.16 14.83 -40 15 C-40.33 15.66 -40.66 16.32 -41 17 C-42.32 16.67 -43.64 16.34 -45 16 C-44.67 15.34 -44.34 14.68 -44 14 C-43.34 14 -42.68 14 -42 14 C-41.67 12.68 -41.34 11.36 -41 10 C-40.14 9.93 -39.28 9.85 -38.39 9.77 C-29.7 8.84 -21.86 6.94 -13.61 4.03 C-8.84 2.39 -5.04 1.69 0 2 C0 1.34 0 0.68 0 0 Z " fill="#713796" transform="translate(816,418)"/>
<path d="M0 0 C0 5.61 0 11.22 0 17 C-1.98 17.99 -3.96 18.98 -6 20 C-6.99 19.67 -7.98 19.34 -9 19 C-9.91 6.51 -9.91 6.51 -7.77 2.96 C-5.18 0.77 -3.39 0 0 0 Z " fill="#5C5D61" transform="translate(655,461)"/>
<path d="M0 0 C4.05 3.9 7.61 8.05 11.12 12.44 C11.69 13.13 12.25 13.83 12.83 14.54 C16.64 19.28 20.42 24.04 24.19 28.81 C24.64 29.39 25.1 29.97 25.57 30.57 C27.48 33 29.29 35.43 31 38 C29.35 37.67 27.7 37.34 26 37 C25.67 36.01 25.34 35.02 25 34 C24.34 34.17 24.34 34.17 21 35 C21 34.34 21 33.68 21 33 C20.34 33 19.68 33 19 33 C18.4 30.24 18 27.84 18 25 C17.34 25 16.68 25 16 25 C16 24.34 16 23.68 16 23 C15.34 23 14.68 23 14 23 C10.98 19.8 9.5 17.38 9 13 C8.01 13 7.02 13 6 13 C5.96 12.69 5.96 12.69 5.75 11.12 C5.63 10.77 5.63 10.77 5 9 C4.34 8.73 3.68 8.46 3 8.19 C2.34 7.8 1.68 7.4 1 7 C0.25 3.38 0.25 3.38 0 0 Z " fill="#74399B" transform="translate(775,435)"/>
<path d="M0 0 C5 1 5 1 7.31 2.38 C10.03 6.6 9.44 11.11 9 16 C8.7 17.34 8.38 18.68 8 20 C3.25 18.12 3.25 18.12 1 17 C0.67 11.39 0.34 5.78 0 0 Z " fill="#606368" transform="translate(602,461)"/>
<path d="M0 0 C34.65 0 69.3 0 105 0 C104.34 1.32 103.68 2.64 103 4 C102.67 3.67 102.67 3.67 101 2 C97.93 1.78 94.94 1.69 91.87 1.68 C91.4 1.68 91.4 1.68 89 1.65 C85.86 1.62 82.72 1.6 79.59 1.59 C77.41 1.57 75.24 1.55 73.07 1.53 C67.35 1.48 61.62 1.44 55.9 1.4 C50.06 1.36 44.22 1.31 38.38 1.26 C26.92 1.16 15.46 1.08 4 1 C3.67 2.32 3.34 3.64 3 5 C2.01 3.35 1.02 1.7 0 0 Z " fill="#6B4089" transform="translate(421,218)"/>
<path d="M0 0 C0.99 0.33 1.98 0.66 3 1 C-4.84 12.23 -13 21.78 -24 30 C-24.33 28.68 -24.66 27.36 -25 26 C-24.34 26 -23.68 26 -23 26 C-23 25.01 -23 24.02 -23 23 C-22.34 23 -21.68 23 -21 23 C-20.67 22.01 -20.34 21.02 -20 20 C-19.01 19.67 -18.02 19.34 -17 19 C-15.62 17.37 -14.29 15.7 -13 14 C-11 12 -11 12 -9 11.12 C-6.58 9.76 -6.01 8.53 -5 6 C-4.34 6 -3.68 6 -3 6 C-3 5.01 -3 4.02 -3 3 C-1.5 1.31 -1.5 1.31 0 0 Z " fill="#713994" transform="translate(864,377)"/>
<path d="M0 0 C5.46 2.12 10.82 4.27 16 7 C12.7 8.1 11.6 7.87 8.31 7.06 C7.5 6.87 6.7 6.67 5.86 6.47 C5.25 6.32 4.63 6.16 4 6 C4 6.66 4 7.32 4 8 C4.66 8.33 5.32 8.66 6 9 C5.99 9.62 5.98 10.23 5.96 10.87 C5.9 16.68 6.26 22.24 7 28 C3.86 24.51 2.88 20.71 1.81 16.25 C1.64 15.57 1.46 14.89 1.28 14.2 C0.08 9.36 -0.16 4.98 0 0 Z " fill="#6E33A1" transform="translate(549,349)"/>
<path d="M0 0 C3.81 1.75 7.51 3.68 11.21 5.64 C11.93 6.02 12.65 6.4 13.39 6.79 C17.1 8.76 20.77 10.79 24.38 12.95 C24.7 13.14 24.7 13.14 26.35 14.13 C27.89 15.33 27.89 15.33 28.89 18.14 C28.89 18.87 28.89 19.59 28.89 20.33 C25.07 21.75 21.98 22.57 17.89 22.33 C20.52 20.18 22.54 18.93 25.89 18.33 C25.21 16.44 25.21 16.44 23.89 14.33 C21.51 13.29 21.51 13.29 18.77 12.58 C17.86 12.34 16.95 12.1 16.01 11.85 C15.66 11.76 15.66 11.76 13.89 11.33 C13.89 10.67 13.89 10.01 13.89 9.33 C12.99 9.21 12.08 9.08 11.14 8.96 C8.3 8.41 6.37 7.76 3.89 6.33 C3.89 5.34 3.89 4.35 3.89 3.33 C3.13 3.21 2.37 3.08 1.58 2.96 C-1.11 2.33 -1.11 2.33 -4.11 0.33 C-2.11 -0.67 -2.11 -0.67 0 0 Z " fill="#6C30A0" transform="translate(567.10546875,357.66796875)"/>
<path d="M0 0 C1.32 0 2.64 0 4 0 C4 0.66 4 1.32 4 2 C4.29 2.11 4.29 2.11 5.75 2.69 C8.6 4.35 10.12 6.32 12 9 C12 9.66 12 10.32 12 11 C12.58 11.25 13.15 11.5 13.75 11.75 C16.33 13.18 18.06 14.78 20 17 C20 17.66 20 18.32 20 19 C20.66 19 21.32 19 22 19 C22.33 21.31 22.66 23.62 23 26 C21.87 24.87 20.74 23.74 19.61 22.6 C18.48 21.48 17.35 20.37 16.2 19.27 C3.43 6.86 3.43 6.86 0 0 Z " fill="#6C388F" transform="translate(467,270)"/>
<path d="M0 0 C9.1 3.16 15.18 10.79 20.69 18.38 C21.13 18.98 21.58 19.59 22.04 20.21 C23.26 21.96 23.26 21.96 25 25 C24.67 25.99 24.34 26.98 24 28 C23.34 28 22.68 28 22 28 C21.67 26.35 21.34 24.7 21 23 C20.34 23 19.68 23 19 23 C16.7 20.44 16 19.52 16 16 C15.34 16 14.68 16 14 16 C14 15.34 14 14.68 14 14 C13.4 13.77 12.8 13.55 12.19 13.31 C10 12 10 12 8.56 9.56 C6.74 6.57 4.97 5.75 2 4 C0.69 1.81 0.69 1.81 0 0 Z " fill="#733D96" transform="translate(850,234)"/>
<path d="M0 0 C4.95 2.63 8.88 6.27 13 10 C12.86 11.75 12.86 11.75 12 14 C9.42 16.04 9.42 16.04 6.19 18.06 C0.08 21.94 0.08 21.94 -2.26 23.75 C-4 25 -4 25 -6 25 C-6.33 24.01 -6.66 23.02 -7 22 C-6.34 22 -5.68 22 -5 22 C-3.65 20.35 -2.32 18.68 -1 17 C2 15 2 15 6 15 C6 14.34 6 13.68 6 13 C6.99 13 7.98 13 9 13 C8.34 11.02 7.68 9.04 7 7 C6.01 7 5.02 7 4 7 C4 6.34 4 5.68 4 5 C3.01 4.67 2.02 4.34 1 4 C0.31 1.94 0.31 1.94 0 0 Z " fill="#6B398E" transform="translate(554,499)"/>
<path d="M0 0 C0.33 0 0.66 0 1 0 C0.99 0.83 0.98 1.67 0.96 2.53 C0.88 12.83 0.88 12.83 1.69 17.94 C2.25 22.03 1.25 24.48 -1 28 C-0.01 28.33 0.98 28.66 2 29 C2 33.62 2 38.24 2 43 C-1.88 39.12 -2.59 33.33 -3 28 C-2.84 18.64 -1.66 9.2 0 0 Z " fill="#69388A" transform="translate(717,438)"/>
<path d="M0 0 C5.84 -0.18 11 0.37 16.69 1.69 C17.08 1.77 17.08 1.77 19.04 2.22 C25.97 3.85 32.46 6.18 39 9 C39 9.33 39 9.66 39 10 C31.36 10.42 25.64 8.66 18.72 5.5 C14.92 3.86 11.12 3.04 7.06 2.31 C6.38 2.18 5.69 2.05 4.99 1.92 C3.33 1.61 1.66 1.3 0 1 C0 0.67 0 0.34 0 0 Z " fill="#713C94" transform="translate(802,219)"/>
<path d="M0 0 C0.66 0.33 1.32 0.66 2 1 C-0.37 4.82 -2.98 6.12 -7 8 C-7.66 8.66 -8.32 9.32 -9 10 C-11.62 10.12 -11.62 10.12 -14 10 C-14 11.32 -14 12.64 -14 14 C-13.01 14.33 -12.02 14.66 -11 15 C-11 15.66 -11 16.32 -11 17 C-9.68 17.66 -8.36 18.32 -7 19 C-8.58 18.72 -10.17 18.42 -11.75 18.12 C-12.63 17.96 -13.51 17.8 -14.42 17.63 C-16.87 17.03 -18.81 16.22 -21 15 C-21 14.34 -21 13.68 -21 13 C-18.65 11.45 -16.31 10.02 -13.88 8.62 C-12.54 7.85 -11.2 7.07 -9.87 6.29 C-9.22 5.91 -8.57 5.53 -7.9 5.14 C-5.2 3.52 -2.6 1.77 0 0 Z " fill="#5F3384" transform="translate(679,363)"/>
<path d="M0 0 C23.1 0 46.2 0 70 0 C70 0.33 70 0.66 70 1 C48.22 1.33 26.44 1.66 4 2 C3.67 3.32 3.34 4.64 3 6 C0 2.25 0 2.25 0 0 Z " fill="#643C84" transform="translate(732,218)"/>
<path d="M0 0 C0.66 1.98 1.32 3.96 2 6 C-1.63 6 -5.26 6 -9 6 C-9 4.68 -9 3.36 -9 2 C-13.29 2 -17.58 2 -22 2 C-22 1.67 -22 1.34 -22 1 C-14.66 0.42 -7.37 -0.15 0 0 Z " fill="#7E8081" transform="translate(596,391)"/>
<path d="M0 0 C4.28 4.1 8.02 8.52 11.75 13.12 C12.04 13.48 12.04 13.48 13.54 15.29 C14.1 15.98 14.66 16.67 15.23 17.38 C15.74 18.01 16.25 18.63 16.77 19.27 C18 21 18 21 19 24 C18.01 24 17.02 24 16 24 C16 23.01 16 22.02 16 21 C14.68 20.67 13.36 20.34 12 20 C11.67 18.68 11.34 17.36 11 16 C10.34 16 9.68 16 9 16 C3.89 11.58 1.66 6.42 0 0 Z " fill="#703E94" transform="translate(823,495)"/>
<path d="M0 0 C0.33 0 0.66 0 1 0 C1 6.27 1 12.54 1 19 C-3.78 17.09 -5.63 15.66 -9 12 C-7.19 11.38 -7.19 11.38 -5 11 C-4.01 11.66 -3.02 12.32 -2 13 C-1.94 12.31 -1.88 11.63 -1.82 10.92 C-1.73 10.02 -1.65 9.12 -1.56 8.19 C-1.48 7.29 -1.4 6.4 -1.32 5.48 C-1 3 -1 3 0 0 Z " fill="#7439A0" transform="translate(499,285)"/>
<path d="M0 0 C-2.58 1.99 -5.16 3.96 -7.75 5.94 C-8.48 6.5 -9.21 7.07 -9.96 7.65 C-10.67 8.18 -11.38 8.72 -12.11 9.28 C-12.76 9.77 -13.41 10.27 -14.08 10.78 C-16.06 12.04 -17.7 12.57 -20 13 C-19.67 11.68 -19.34 10.36 -19 9 C-18.01 9 -17.02 9 -16 9 C-15.77 8.36 -15.55 7.72 -15.31 7.06 C-14.88 6.38 -14.45 5.7 -14 5 C-13.17 4.83 -13.17 4.83 -9 4 C-8.3 2.68 -7.63 1.35 -7 0 C-4.05 -1.24 -3.13 -1.04 0 0 Z " fill="#6B388D" transform="translate(548,525)"/>
<path d="M0 0 C0.33 0 0.66 0 1 0 C1.39 3.46 1.76 6.92 2.12 10.38 C2.24 11.36 2.35 12.34 2.46 13.36 C2.56 14.3 2.66 15.24 2.76 16.21 C2.8 16.65 2.8 16.65 3.04 18.85 C3 21 3 21 1 23 C1 22.34 1 21.68 1 21 C0.34 21 -0.32 21 -1 21 C-2.91 4.36 -2.91 4.36 0 0 Z " fill="#404146" transform="translate(549,275)"/>
<path d="M0 0 C4.01 3.83 7.43 7.93 10.81 12.31 C11.31 12.96 11.82 13.6 12.33 14.27 C13.56 15.84 14.78 17.42 16 19 C15.34 19.66 14.68 20.32 14 21 C14 20.34 14 19.68 14 19 C13.36 18.75 12.72 18.5 12.06 18.25 C10 17 10 17 9.25 14.88 C9.17 14.26 9.09 13.64 9 13 C8.34 13 7.68 13 7 13 C7 12.34 7 11.68 7 11 C5.68 11 4.36 11 3 11 C2.5 9.19 2.5 9.19 0 0 Z " fill="#703B93" transform="translate(807,475)"/>
<path d="M0 0 C0.99 0.33 1.98 0.66 3 1 C4.15 6.87 3.77 12.09 3 18 C2.67 16.68 2.34 15.36 2 14 C0.68 14 -0.64 14 -2 14 C-1.04 4.59 -1.04 4.59 0 0 Z " fill="#595D5F" transform="translate(712,212)"/>
<path d="M0 0 C-2.79 1.98 -5.58 3.96 -8.38 5.94 C-9.17 6.5 -9.96 7.07 -10.78 7.65 C-11.54 8.18 -12.3 8.72 -13.09 9.28 C-13.79 9.77 -14.49 10.27 -15.21 10.78 C-17 12 -17 12 -19 13 C-19.33 12.01 -19.66 11.02 -20 10 C-19.22 9.92 -18.43 9.84 -17.62 9.75 C-15 9 -15 9 -13.75 7.12 C-13.15 5.42 -12.57 3.71 -12 2 C-10.29 1.02 -10.29 1.02 -8.19 0.25 C-7.5 -0.01 -6.81 -0.28 -6.11 -0.55 C-3.7 -1.06 -2.33 -0.66 0 0 Z " fill="#663488" transform="translate(491,566)"/>
<path d="M0 0 C0.92 2.97 1.09 3.77 -0.06 6.81 C-2.33 10.54 -4.82 14 -8 17 C-8.66 17 -9.32 17 -10 17 C-10 17.66 -10 18.32 -10 19 C-10.66 19 -11.32 19 -12 19 C-10.43 14.27 -7.79 10.66 -4.88 6.69 C-4.41 6.04 -3.94 5.4 -3.46 4.73 C-2.31 3.15 -1.16 1.58 0 0 Z " fill="#6F388F" transform="translate(495,517)"/>
<path d="M0 0 C-3.04 3.3 -6.2 5.54 -10.06 7.81 C-11.11 8.44 -12.15 9.06 -13.22 9.71 C-16 11 -16 11 -19 10 C-18.01 9.34 -17.02 8.68 -16 8 C-14 6 -14 6 -12 3 C-7.84 0.45 -4.87 -0.35 0 0 Z " fill="#683888" transform="translate(839,407)"/>
<path d="M0 0 C0.99 0 1.98 0 3 0 C3.06 0.98 3.12 1.95 3.18 2.96 C3.27 4.23 3.35 5.5 3.44 6.81 C3.52 8.08 3.6 9.34 3.68 10.64 C4 14 4 14 5 17 C9.29 17.33 13.58 17.66 18 18 C18 18.33 18 18.66 18 19 C13.05 19 8.1 19 3 19 C0.94 14.87 0.58 11.73 0.38 7.25 C0.34 6.55 0.3 5.86 0.26 5.14 C0.16 3.42 0.08 1.71 0 0 Z " fill="#613780" transform="translate(754,272)"/>
<path d="M0 0 C3.26 3.16 6.32 6.33 9 10 C9 10.66 9 11.32 9 12 C9.66 12 10.32 12 11 12 C15 16.47 15 16.47 15 19 C13.68 18.67 12.36 18.34 11 18 C10.67 16.68 10.34 15.36 10 14 C8.68 13.67 7.36 13.34 6 13 C5.67 11.02 5.34 9.04 5 7 C3.68 7 2.36 7 1 7 C0.67 4.69 0.34 2.38 0 0 Z " fill="#703B93" transform="translate(842,519)"/>
<path d="M0 0 C0.33 0 0.66 0 1 0 C1 5.28 1 10.56 1 16 C0.67 16 0.34 16 0 16 C0 13.03 0 10.06 0 7 C-0.6 7.66 -1.2 8.32 -1.81 9 C-4 11 -4 11 -7 11 C-7.33 12.32 -7.66 13.64 -8 15 C-8.66 15 -9.32 15 -10 15 C-8.6 10.93 -6.66 8.02 -3.94 4.69 C-3.22 3.8 -2.51 2.92 -1.78 2.01 C-1.19 1.35 -0.6 0.68 0 0 Z " fill="#623C7E" transform="translate(540,453)"/>
<path d="M0 0 C6.05 6.05 4.62 19.85 5 28 C0.35 19.78 -0.58 9.28 0 0 Z " fill="#783B9F" transform="translate(879,269)"/>
<path d="M0 0 C0.33 0.66 0.66 1.32 1 2 C3.06 2.62 3.06 2.62 5 3 C1.57 6.64 -1.8 9.36 -6 12 C-6.66 11.67 -7.32 11.34 -8 11 C-5.36 7.37 -2.72 3.74 0 0 Z " fill="#5D4074" transform="translate(443,592)"/>
<path d="M0 0 C0.62 1.75 0.62 1.75 1 4 C0.35 5.34 -0.32 6.67 -1 8 C-1.12 10.75 -1.12 10.75 -1 13 C-0.34 13 0.32 13 1 13 C1.33 14.98 1.66 16.96 2 19 C-4.38 12.8 -4.38 12.8 -6 10 C-5.94 7.94 -5.94 7.94 -5 6 C-3.69 4.97 -2.35 3.97 -1 3 C-0.67 2.01 -0.34 1.02 0 0 Z " fill="#6A3C8D" transform="translate(719,481)"/>
<path d="M0 0 C1.65 0 3.3 0 5 0 C1.54 2.94 -2.32 4.54 -6.5 6.19 C-7.16 6.46 -7.83 6.73 -8.51 7.01 C-11.94 8.38 -14.26 9 -18 9 C-18 8.34 -18 7.68 -18 7 C-16.02 7 -14.04 7 -12 7 C-12 6.34 -12 5.68 -12 5 C-11.34 5 -10.68 5 -10 5 C-10 4.34 -10 3.68 -10 3 C-6.53 1.84 -3.64 1.93 0 2 C0 1.34 0 0.68 0 0 Z " fill="#6A378B" transform="translate(816,418)"/>
<path d="M0 0 C-1.11 0.31 -2.23 0.62 -3.38 0.94 C-7 2 -7 2 -9 3 C-8.65 3.58 -8.3 4.15 -7.94 4.75 C-6.83 7.4 -7.2 8.33 -8 11 C-9.17 9.71 -10.34 8.42 -11.5 7.12 C-12.15 6.41 -12.8 5.69 -13.47 4.95 C-15 3 -15 3 -15 1 C-13.25 0.64 -11.5 0.28 -9.75 -0.06 C-9.26 -0.16 -9.26 -0.16 -6.8 -0.66 C-4.13 -0.98 -2.51 -0.86 0 0 Z " fill="#643A86" transform="translate(761,368)"/>
<path d="M0 0 C0.33 0 0.66 0 1 0 C0.97 2.88 0.9 5.75 0.81 8.62 C0.81 9.43 0.8 10.24 0.79 11.07 C0.58 17.04 -0.61 19.89 -5 24 C-5.66 24 -6.32 24 -7 24 C-6.06 21.11 -5.09 18.24 -4.01 15.4 C-2.05 10.23 -0.49 5.52 0 0 Z " fill="#6C398C" transform="translate(799,322)"/>
<path d="M0 0 C0.66 0.33 1.32 0.66 2 1 C0.08 7.99 -2.85 14.05 -7 20 C-7.33 20 -7.66 20 -8 20 C-8 18.35 -8 16.7 -8 15 C-7.34 15 -6.68 15 -6 15 C-6.04 14.26 -6.08 13.51 -6.12 12.75 C-6 9.91 -5.43 8.41 -4 6 C-3.01 6 -2.02 6 -1 6 C-1.02 5.2 -1.04 4.39 -1.06 3.56 C-1 1 -1 1 0 0 Z " fill="#6B398E" transform="translate(875,357)"/>
<path d="M0 0 C1.65 0.66 1.65 0.66 10 4 C6 5 6 5 2 4 C2.66 9.28 3.32 14.56 4 20 C-0.02 13.97 -0.26 7.08 0 0 Z " fill="#5C3182" transform="translate(549,349)"/>
<path d="M0 0 C5.4 4.59 10.71 9.28 16 14 C15.67 14.66 15.34 15.32 15 16 C14.01 16 13.02 16 12 16 C12 15.34 12 14.68 12 14 C11.34 14 10.68 14 10 14 C9.9 13.36 9.79 12.72 9.69 12.06 C9.46 11.38 9.23 10.7 9 10 C8.01 9.67 7.02 9.34 6 9 C5.67 8.34 5.34 7.68 5 7 C4.01 6.67 3.02 6.34 2 6 C0.81 2.94 0.81 2.94 0 0 Z " fill="#68378B" transform="translate(538,484)"/>
<path d="M0 0 C4.32 1.42 7 3.54 10.31 6.62 C11.2 7.44 12.08 8.26 12.99 9.1 C13.65 9.73 14.32 10.35 15 11 C12 12 12 12 9.88 11.25 C8 10 8 10 7 7 C6.2 6.53 5.39 6.05 4.56 5.56 C1.84 3.9 1.11 2.92 0 0 Z " fill="#703E93" transform="translate(850,234)"/>
<path d="M0 0 C3.88 1.75 3.88 1.75 5 4 C1.54 5 -1.92 6 -5.38 7 C-6.36 7.29 -7.34 7.57 -8.36 7.87 C-9.3 8.14 -10.24 8.41 -11.21 8.69 C-12.08 8.94 -12.95 9.19 -13.85 9.45 C-16 10 -16 10 -18 10 C-18 9.34 -18 8.68 -18 8 C-17.07 7.8 -16.15 7.59 -15.19 7.38 C-13.99 7.11 -12.8 6.84 -11.56 6.56 C-10.37 6.3 -9.17 6.03 -7.94 5.75 C-5 5 -5 5 -4 4 C-2.33 3.96 -0.67 3.96 1 4 C0.67 2.68 0.34 1.36 0 0 Z " fill="#5B327E" transform="translate(595,374)"/>
<path d="M0 0 C0.33 0 0.66 0 1 0 C1.33 5.28 1.66 10.56 2 16 C1.01 16 0.02 16 -1 16 C-1.17 14.58 -1.34 13.17 -1.5 11.75 C-1.59 10.96 -1.69 10.17 -1.78 9.36 C-2 7 -2 7 -2 3 C-1.34 3 -0.68 3 0 3 C0 2.01 0 1.02 0 0 Z " fill="#424348" transform="translate(553,304)"/>
<path d="M0 0 C0.66 0.33 1.32 0.66 2 1 C-0.37 4.82 -2.98 6.12 -7 8 C-7.66 8.66 -8.32 9.32 -9 10 C-11.32 10.4 -13.66 10.74 -16 11 C-13.28 7.91 -9.91 5.89 -6.44 3.75 C-5.85 3.37 -5.26 3 -4.65 2.61 C-3.14 1.67 -1.57 0.83 0 0 Z " fill="#67348F" transform="translate(679,363)"/>
<path d="M0 0 C0.4 6.17 -1.03 11.18 -3 17 C-3.33 17 -3.66 17 -4 17 C-3.99 16.67 -3.99 16.67 -3.96 15.02 C-3.92 10.22 -4.01 5.72 -5 1 C-3 0 -3 0 0 0 Z " fill="#7D7F83" transform="translate(709,261)"/>
<path d="M0 0 C0.66 0.33 1.32 0.66 2 1 C2.41 3.07 2.41 3.07 2.62 5.56 C2.7 6.39 2.77 7.22 2.85 8.07 C2.9 8.7 2.95 9.34 3 10 C1.35 10.33 -0.3 10.66 -2 11 C-3.35 4.6 -3.35 4.6 -1.56 1.56 C-1.05 1.05 -0.53 0.53 0 0 Z " fill="#707277" transform="translate(543,212)"/>
<path d="M0 0 C0.66 0 1.32 0 2 0 C2 0.66 2 1.32 2 2 C2.66 2 3.32 2 4 2 C4 5.63 4 9.26 4 13 C3.01 13 2.02 13 1 13 C-0.32 10.36 -0.1 8.32 -0.06 5.38 C-0.05 4.37 -0.04 3.37 -0.04 2.34 C-0.02 1.57 -0.01 0.79 0 0 Z " fill="#763C9B" transform="translate(753,259)"/>
<path d="M0 0 C10.89 0 21.78 0 33 0 C33 0.33 33 0.66 33 1 C23.43 1 13.86 1 4 1 C3.67 2.32 3.34 3.64 3 5 C2.01 3.35 1.02 1.7 0 0 Z " fill="#603D7F" transform="translate(421,218)"/>
<path d="M0 0 C2 3.75 2 3.75 2 6 C1.34 6 0.68 6 0 6 C0.21 7.09 0.41 8.19 0.62 9.31 C1 13 1 13 -1 16 C-3.45 12.33 -3.32 10.34 -3 6 C-2.34 5.34 -1.68 4.68 -1 4 C-0.38 1.88 -0.38 1.88 0 0 Z " fill="#3F4146" transform="translate(544,274)"/>
<path d="M0 0 C0.99 0.33 1.98 0.66 3 1 C3 5.62 3 10.24 3 15 C0.34 12.34 0.06 10.35 -0.1 6.64 C-0.09 5.85 -0.07 5.06 -0.06 4.25 C-0.05 3.45 -0.04 2.65 -0.04 1.83 C-0.02 1.22 -0.01 0.62 0 0 Z " fill="#703993" transform="translate(716,466)"/>
<path d="M0 0 C2 1.25 2 1.25 4 3 C4 4.32 4 5.64 4 7 C4.66 7.33 5.32 7.66 6 8 C5 11 5 11 2.94 12.19 C2.3 12.46 1.66 12.72 1 13 C1.02 11.97 1.04 10.94 1.06 9.88 C1.01 6.45 0.65 3.35 0 0 Z " fill="#7839A2" transform="translate(857,538)"/>
<path d="M0 0 C3 1 3 1 5 4 C6.19 8.99 6.1 13.91 6 19 C5.67 19 5.34 19 5 19 C4.81 18.13 4.61 17.26 4.41 16.37 C4.15 15.21 3.89 14.06 3.62 12.88 C3.37 11.74 3.11 10.6 2.85 9.43 C2.05 6.22 1.09 3.12 0 0 Z " fill="#633582" transform="translate(794,297)"/>
<path d="M0 0 C1.06 1.81 1.06 1.81 2 4 C1.67 4.99 1.34 5.98 1 7 C0.01 7.33 -0.98 7.66 -2 8 C-2 8.66 -2 9.32 -2 10 C-3.65 9.67 -5.3 9.34 -7 9 C-7 8.34 -7 7.68 -7 7 C-2.53 3 -2.53 3 0 3 C0 2.01 0 1.02 0 0 Z " fill="#793F9C" transform="translate(451,585)"/>
<path d="M0 0 C3.13 3.13 3.05 5.97 3.06 10.25 C3.04 11.49 3.02 12.73 3 14 C2.01 13.67 1.02 13.34 0 13 C0 8.71 0 4.42 0 0 Z " fill="#74389D" transform="translate(883,314)"/>
<path d="M0 0 C0.66 0.99 1.32 1.98 2 3 C1.01 3.33 0.02 3.66 -1 4 C-1 4.66 -1 5.32 -1 6 C-1.66 6 -2.32 6 -3 6 C-3 7.32 -3 8.64 -3 10 C-4.65 10.33 -6.3 10.66 -8 11 C-5.71 6.91 -3.04 3.54 0 0 Z " fill="#6D378B" transform="translate(731,421)"/>
<path d="M0 0 C0.33 0 0.66 0 1 0 C2.1 4.41 2.08 8.48 2 13 C2.66 13.33 3.32 13.66 4 14 C2.02 16.31 0.04 18.62 -2 21 C-2 18 -2 18 0 16 C0.15 13.26 0.19 10.62 0.12 7.88 C0.12 7.12 0.11 6.37 0.1 5.59 C0.07 3.73 0.04 1.86 0 0 Z " fill="#404247" transform="translate(535,299)"/>
<path d="M0 0 C0.33 0 0.66 0 1 0 C1.33 3.96 1.66 7.92 2 12 C1.01 12.33 0.02 12.66 -1 13 C-2.56 9.87 -2.4 6.42 -2 3 C-1.34 2.01 -0.68 1.02 0 0 Z " fill="#47484C" transform="translate(549,275)"/>
<path d="M0 0 C2.62 -0.19 2.62 -0.19 5 0 C1.68 5.78 1.68 5.78 -1.75 6.88 C-2.49 6.92 -3.24 6.96 -4 7 C-2.8 4.51 -1.55 2.32 0 0 Z " fill="#723595" transform="translate(461,566)"/>
<path d="M0 0 C1.32 0 2.64 0 4 0 C4.33 1.65 4.66 3.3 5 5 C3.12 5.62 3.12 5.62 1 6 C0.34 5.34 -0.32 4.68 -1 4 C-0.62 1.88 -0.62 1.88 0 0 Z " fill="#86898C" transform="translate(692,393)"/>
<path d="M0 0 C0.33 0 0.66 0 1 0 C1 6.93 1 13.86 1 21 C-0.65 19.35 -2.3 17.7 -4 16 C-2.68 16.33 -1.36 16.66 0 17 C0 11.39 0 5.78 0 0 Z " fill="#54316F" transform="translate(500,287)"/>
<path d="M0 0 C-1.83 2.46 -3.23 3.83 -6.27 4.49 C-8.51 4.73 -10.74 4.9 -13 5 C-10.54 0.08 -4.96 -0.35 0 0 Z " fill="#6F3695" transform="translate(839,407)"/>
<path d="M0 0 C-3.63 2.31 -7.26 4.62 -11 7 C-11 5.68 -11 4.36 -11 3 C-9.74 2.3 -8.46 1.62 -7.19 0.94 C-6.48 0.55 -5.77 0.17 -5.04 -0.22 C-3 -1 -3 -1 0 0 Z " fill="#66388A" transform="translate(515,549)"/>
<path d="M0 0 C1.32 0 2.64 0 4 0 C4 1.32 4 2.64 4 4 C5.65 4 7.3 4 9 4 C9.33 5.32 9.66 6.64 10 8 C5.57 6.61 3.08 4.44 0 1 C0 0.67 0 0.34 0 0 Z " fill="#683D8B" transform="translate(490,296)"/>
<path d="M0 0 C0.66 0 1.32 0 2 0 C2.33 1.98 2.66 3.96 3 6 C3.66 6 4.32 6 5 6 C5 8.97 5 11.94 5 15 C3.32 11.63 2.32 8.85 1.38 5.25 C1.11 4.27 0.85 3.28 0.59 2.27 C0.39 1.52 0.2 0.77 0 0 Z " fill="#673784" transform="translate(748,250)"/>
<path d="M0 0 C5.75 1.62 5.75 1.62 8 5 C8 5.99 8 6.98 8 8 C8.66 8 9.32 8 10 8 C9.67 8.99 9.34 9.98 9 11 C7.5 9.36 6 7.71 4.5 6.06 C3.66 5.15 2.83 4.23 1.97 3.29 C0 1 0 1 0 0 Z " fill="#623484" transform="translate(438,238)"/>
<path d="M0 0 C4.39 0.66 7.98 2.19 12 4 C12 4.33 12 4.66 12 5 C9.36 5 6.72 5 4 5 C4 4.34 4 3.68 4 3 C3.34 3 2.68 3 2 3 C2 2.34 2 1.68 2 1 C1.34 0.67 0.68 0.34 0 0 Z " fill="#6A388B" transform="translate(829,224)"/>
<path d="M0 0 C0 3.4 -0.52 4.07 -2.5 6.69 C-2.96 7.31 -3.43 7.93 -3.91 8.57 C-4.27 9.04 -4.63 9.52 -5 10 C-6 7 -6 7 -5.31 4.44 C-3.84 1.7 -2.86 1.05 0 0 Z " fill="#7D38A1" transform="translate(501,514)"/>
<path d="M0 0 C1 2 1 2 0.38 5 C-1 8 -1 8 -3.62 9.38 C-4.41 9.58 -5.19 9.79 -6 10 C-4.63 6 -2.74 3.2 0 0 Z " fill="#6E3A8A" transform="translate(522,478)"/>
<path d="M0 0 C2 3 2 3 1.76 5.26 C1.55 6.06 1.34 6.86 1.12 7.69 C0.92 8.5 0.72 9.3 0.51 10.14 C0.42 10.44 0.42 10.44 0 12 C-2 10 -2 10 -2.25 6.56 C-2 3 -2 3 0 0 Z " fill="#818286" transform="translate(544,219)"/>
<path d="M0 0 C-5.75 5 -5.75 5 -8 5 C-8 3.68 -8 2.36 -8 1 C-4.93 -0.86 -3.4 -1.22 0 0 Z " fill="#69368A" transform="translate(528,539)"/>
<path d="M0 0 C3 4 3 4 2.69 6.25 C2.46 6.83 2.23 7.4 2 8 C2.66 8 3.32 8 4 8 C4 8.66 4 9.32 4 10 C2.35 10.33 0.7 10.66 -1 11 C-0.67 7.37 -0.34 3.74 0 0 Z " fill="#616467" transform="translate(647,470)"/>
<path d="M0 0 C0.99 0.33 1.98 0.66 3 1 C1.68 2.15 1.68 2.15 -5 8 C-5.33 6.68 -5.66 5.36 -6 4 C-4.35 3.67 -2.7 3.34 -1 3 C-0.67 2.01 -0.34 1.02 0 0 Z " fill="#6B398D" transform="translate(845,399)"/>
<path d="M0 0 C6.52 1.35 6.52 1.35 8.94 4.62 C9.29 5.41 9.64 6.19 10 7 C8.35 7 6.7 7 5 7 C5 6.01 5 5.02 5 4 C2.5 2.38 2.5 2.38 0 1 C0 0.67 0 0.34 0 0 Z " fill="#7732B3" transform="translate(584,370)"/>
<path d="M0 0 C5.28 0 10.56 0 16 0 C16.33 1.32 16.66 2.64 17 4 C16.65 3.84 16.65 3.84 14.89 3.04 C11.74 1.91 9.03 1.6 5.69 1.38 C5.15 1.34 5.15 1.34 2.45 1.15 C2.05 1.12 2.05 1.12 0 1 C0 0.67 0 0.34 0 0 Z " fill="#5F3180" transform="translate(776,291)"/>
<path d="M0 0 C0.66 0 1.32 0 2 0 C2.66 1.65 3.32 3.3 4 5 C4.66 5 5.32 5 6 5 C5.67 5.99 5.34 6.98 5 8 C5 7.34 5 6.68 5 6 C3.35 5.67 1.7 5.34 0 5 C-0.56 3.06 -0.56 3.06 -1 1 C-0.67 0.67 -0.34 0.34 0 0 Z " fill="#763BA0" transform="translate(774,561)"/>
<path d="M0 0 C0.99 0.33 1.98 0.66 3 1 C3 1.99 3 2.98 3 4 C-0.82 5.42 -3.91 6.24 -8 6 C-5.38 3.85 -3.36 2.6 0 2 C0 1.34 0 0.68 0 0 Z " fill="#7236A4" transform="translate(593,374)"/>
<path d="M0 0 C1.32 0 2.64 0 4 0 C3.67 2.64 3.34 5.28 3 8 C2.01 7.34 1.02 6.68 0 6 C-0.19 2.88 -0.19 2.88 0 0 Z " fill="#878B8E" transform="translate(710,226)"/>
<path d="M0 0 C0.99 0.33 1.98 0.66 3 1 C1.35 3.64 -0.3 6.28 -2 9 C-2.66 8.01 -3.32 7.02 -4 6 C-3.34 6 -2.68 6 -2 6 C-2 4.68 -2 3.36 -2 2 C-1.34 2 -0.68 2 0 2 C0 1.34 0 0.68 0 0 Z " fill="#6A3789" transform="translate(520,222)"/>
<path d="M0 0 C1.65 0 3.3 0 5 0 C2.19 2.96 -0.18 5.44 -4 7 C-4.33 6.01 -4.66 5.02 -5 4 C-3.68 4 -2.36 4 -1 4 C-0.67 2.68 -0.34 1.36 0 0 Z " fill="#683883" transform="translate(453,588)"/>
<path d="M0 0 C2.65 2.58 4.94 4.92 7 8 C4.62 7.69 4.62 7.69 2 7 C0 4 0 4 0 0 Z " fill="#6C368F" transform="translate(799,465)"/>
<path d="M0 0 C-0.33 3.3 -0.66 6.6 -1 10 C-1.33 10 -1.66 10 -2 10 C-2 7.36 -2 4.72 -2 2 C-3.98 2.33 -5.96 2.66 -8 3 C-4.94 0.38 -4.27 0 0 0 Z " fill="#582F7A" transform="translate(709,349)"/>
<path d="M0 0 C0.99 0.33 1.98 0.66 3 1 C3 2.98 3 4.96 3 7 C2.34 7 1.68 7 1 7 C0.67 7.66 0.34 8.32 0 9 C0 6.03 0 3.06 0 0 Z " fill="#686C6E" transform="translate(712,212)"/>
<path d="M0 0 C1.65 0.33 3.3 0.66 5 1 C3.71 2.38 2.37 3.71 1 5 C0.34 5 -0.32 5 -1 5 C-0.67 3.35 -0.34 1.7 0 0 Z " fill="#6A4286" transform="translate(443,594)"/>
<path d="M0 0 C0.66 0 1.32 0 2 0 C2 0.66 2 1.32 2 2 C3.32 2.33 4.64 2.66 6 3 C6 4.32 6 5.64 6 7 C4 7 4 7 1.88 5.19 C0 3 0 3 0 0 Z " fill="#763C9D" transform="translate(873,561)"/>
<path d="M0 0 C0.33 0.99 0.66 1.98 1 3 C0.67 3.5 0.67 3.5 -1 6 C-1.66 6 -2.32 6 -3 6 C-3.33 7.32 -3.66 8.64 -4 10 C-4.66 10 -5.32 10 -6 10 C-4.63 6 -2.74 3.2 0 0 Z " fill="#683886" transform="translate(482,536)"/>
<path d="M0 0 C2 1 2 1 3.19 4.31 C3.91 7.58 4.2 8.99 3 12 C3 11.34 3 10.68 3 10 C2.34 10 1.68 10 1 10 C1.02 9.28 1.04 8.56 1.06 7.81 C1 5.08 0.61 2.66 0 0 Z " fill="#7B39A2" transform="translate(747,240)"/>
<path d="M0 0 C0.75 1.69 0.75 1.69 1 4 C-0.81 6.75 -0.81 6.75 -3 9 C-3.66 9 -4.32 9 -5 9 C-3.75 5.54 -2.32 2.85 0 0 Z " fill="#6A3586" transform="translate(495,517)"/>
<path d="M0 0 C0.55 2.08 1 3.84 1 6 C1.66 6 2.32 6 3 6 C2.67 6.99 2.34 7.98 2 9 C-0.34 6.87 -1.71 4.88 -3 2 C-2.01 1.34 -1.02 0.68 0 0 Z " fill="#7835A6" transform="translate(734,507)"/>
<path d="M0 0 C-0.33 0.66 -0.66 1.32 -1 2 C-3.97 2 -6.94 2 -10 2 C-5.87 -0.76 -4.78 -1.13 0 0 Z " fill="#77409E" transform="translate(790,428)"/>
<path d="M0 0 C0.33 0.99 0.66 1.98 1 3 C-0.65 4.32 -2.3 5.64 -4 7 C-4.66 6.34 -5.32 5.68 -6 5 C-3.99 1.99 -3.16 1.37 0 0 Z " fill="#723794" transform="translate(747,404)"/>
<path d="M0 0 C0.8 0.01 1.6 0.02 2.42 0.03 C3.03 0.04 3.63 0.05 4.25 0.06 C4.25 0.39 4.25 0.72 4.25 1.06 C2.46 1.45 0.67 1.82 -1.12 2.19 C-2.12 2.4 -3.12 2.61 -4.15 2.82 C-5.01 2.9 -5.87 2.98 -6.75 3.06 C-7.41 2.4 -8.07 1.74 -8.75 1.06 C-5.76 0.19 -3.11 -0.05 0 0 Z " fill="#7835AF" transform="translate(580.75,379.9375)"/>
<path d="M0 0 C0.66 0.33 1.32 0.66 2 1 C0.25 3.5 0.25 3.5 -2 6 C-3.32 6 -4.64 6 -6 6 C-6 5.34 -6 4.68 -6 4 C-4.04 2.61 -2.04 1.27 0 0 Z " fill="#4F5156" transform="translate(542,329)"/>
<path d="M0 0 C2.15 2.62 3.4 4.64 4 8 C3.01 8.33 2.02 8.66 1 9 C-0.48 6.04 -0.06 3.26 0 0 Z " fill="#713D93" transform="translate(875,261)"/>
<path d="M0 0 C0.33 0.66 0.66 1.32 1 2 C1.66 2 2.32 2 3 2 C3.33 3.98 3.66 5.96 4 8 C-0.88 3.25 -0.88 3.25 -2 1 C-1.34 0.67 -0.68 0.34 0 0 Z " fill="#653488" transform="translate(717,492)"/>
<path d="M0 0 C0.99 0 1.98 0 3 0 C2.67 4.29 2.34 8.58 2 13 C1.67 13 1.34 13 1 13 C0.67 8.71 0.34 4.42 0 0 Z " fill="#53565B" transform="translate(602,461)"/>
<path d="M0 0 C0.33 1.32 0.66 2.64 1 4 C0.34 4 -0.32 4 -1 4 C-1.1 4.64 -1.21 5.28 -1.31 5.94 C-1.54 6.62 -1.77 7.3 -2 8 C-2.99 8.33 -3.98 8.66 -5 9 C-4.52 4.69 -3.25 2.83 0 0 Z " fill="#7E3AA5" transform="translate(796,342)"/>
<path d="M0 0 C1.98 0.66 3.96 1.32 6 2 C6.33 3.98 6.66 5.96 7 8 C4.35 5.42 2.06 3.08 0 0 Z " fill="#633484" transform="translate(732,514)"/>
<path d="M0 0 C0.33 1.32 0.66 2.64 1 4 C0.34 4 -0.32 4 -1 4 C-1 5.32 -1 6.64 -1 8 C-2.32 8.33 -3.64 8.66 -5 9 C-3.5 5.89 -1.8 2.95 0 0 Z " fill="#673883" transform="translate(501,508)"/>
<path d="M0 0 C4.88 4.62 4.88 4.62 6 8 C4.68 7.67 3.36 7.34 2 7 C1.34 4.69 0.68 2.38 0 0 Z " fill="#663B8A" transform="translate(823,495)"/>
<path d="M0 0 C3.4 3.4 3.05 7.77 3.06 12.38 C3.04 13.57 3.02 14.77 3 16 C2.67 16 2.34 16 2 16 C1.34 10.72 0.68 5.44 0 0 Z " fill="#3F4247" transform="translate(532,282)"/>
<path d="M0 0 C0.33 0 0.66 0 1 0 C1.29 7.43 1.29 7.43 -1 11 C-1.33 8.36 -1.66 5.72 -2 3 C-1.34 3 -0.68 3 0 3 C0 2.01 0 1.02 0 0 Z " fill="#653188" transform="translate(501,276)"/>
<path d="M0 0 C1.32 0.33 2.64 0.66 4 1 C4.33 2.32 4.66 3.64 5 5 C4.01 5 3.02 5 2 5 C1.34 3.35 0.68 1.7 0 0 Z " fill="#6B378D" transform="translate(463,264)"/>
<path d="M0 0 C1.98 1.65 3.96 3.3 6 5 C3 6 3 6 0 5 C0 3.35 0 1.7 0 0 Z " fill="#633583" transform="translate(859,240)"/>
<path d="M0 0 C0.99 0.33 1.98 0.66 3 1 C3.33 2.65 3.66 4.3 4 6 C3.01 5.34 2.02 4.68 1 4 C0.01 4.66 -0.98 5.32 -2 6 C-1.34 4.02 -0.68 2.04 0 0 Z " fill="#414347" transform="translate(524,240)"/>
<path d="M0 0 C-0.33 1.32 -0.66 2.64 -1 4 C-1.39 4.07 -1.39 4.07 -3.38 4.44 C-6 5 -6 5 -8 6 C-6.73 2.19 -4.19 0 0 0 Z " fill="#74399E" transform="translate(504,553)"/>
<path d="M0 0 C1.71 1.62 3.37 3.29 5 5 C5 5.66 5 6.32 5 7 C3.68 6.67 2.36 6.34 1 6 C0.67 4.02 0.34 2.04 0 0 Z " fill="#69368B" transform="translate(852,531)"/>
<path d="M0 0 C0 3 0 3 -2 6 C-2.66 6 -3.32 6 -4 6 C-3.67 4.35 -3.34 2.7 -3 1 C-2.01 0.67 -1.02 0.34 0 0 Z " fill="#693D82" transform="translate(722,432)"/>
<path d="M0 0 C2.97 1.65 5.94 3.3 9 5 C8.01 5.66 7.02 6.32 6 7 C5.67 6.01 5.34 5.02 5 4 C3.35 3.67 1.7 3.34 0 3 C0 2.01 0 1.02 0 0 Z " fill="#5E2D87" transform="translate(586,368)"/>
<path d="M0 0 C1.32 0.66 1.32 0.66 8 4 C7.34 4.66 6.68 5.32 6 6 C6 5.34 6 4.68 6 4 C5.01 3.84 5.01 3.84 0 3 C0 2.01 0 1.02 0 0 Z " fill="#69378A" transform="translate(842,229)"/>
<path d="M0 0 C0.33 0 0.66 0 1 0 C1.62 3.38 1.62 3.38 2 7 C1.34 7.66 0.68 8.32 0 9 C-1.12 2.25 -1.12 2.25 0 0 Z " fill="#404146" transform="translate(545,288)"/>
<path d="M0 0 C0.33 0 0.66 0 1 0 C1 2.97 1 5.94 1 9 C0.67 9 0.34 9 0 9 C0 6.03 0 3.06 0 0 Z " fill="#404145" transform="translate(719,305)"/>
<path d="M0 0 C0.66 0 1.32 0 2 0 C2.66 1.32 3.32 2.64 4 4 C2.68 3.34 1.36 2.68 0 2 C0 1.34 0 0.68 0 0 Z " fill="#404146" transform="translate(546,308)"/>
<path d="M0 0 C0.33 0 0.66 0 1 0 C1 2.31 1 4.62 1 7 C0.67 7 0.34 7 0 7 C0 4.69 0 2.38 0 0 Z " fill="#3F4146" transform="translate(715,232)"/>
<path d="M0 0 C0.66 0.66 1.32 1.32 2 2 C1.67 2.99 1.34 3.98 1 5 C0.34 4.67 -0.32 4.34 -1 4 C-0.67 2.68 -0.34 1.36 0 0 Z " fill="#3F4146" transform="translate(716,226)"/>
<path d="M0 0 C0.66 0.99 1.32 1.98 2 3 C0.68 2.67 -0.64 2.34 -2 2 C-1.34 2 -0.68 2 0 2 C0 1.34 0 0.68 0 0 Z " fill="#414347" transform="translate(731,328)"/>
<path d="M0 0 C0.99 0 1.98 0 3 0 C3 0.66 3 1.32 3 2 C2.01 2 1.02 2 0 2 C0 1.34 0 0.68 0 0 Z " fill="#414247" transform="translate(711,292)"/>
<path d="M0 0 C0.33 0 0.66 0 1 0 C1 1.98 1 3.96 1 6 C0.67 6 0.34 6 0 6 C0 4.02 0 2.04 0 0 Z " fill="#404247" transform="translate(714,241)"/>
<path d="M0 0 C0.99 0.33 1.98 0.66 3 1 C2.34 1.66 1.68 2.32 1 3 C0.67 2.01 0.34 1.02 0 0 Z " fill="#414347" transform="translate(705,431)"/>
<path d="M0 0 C0.33 0.17 0.33 0.17 2 1 C1.67 1.5 1.67 1.5 0 4 C0 2.68 0 1.36 0 0 Z " fill="#414247" transform="translate(698,429)"/>
<path d="M0 0 C0.66 0.66 1.32 1.32 2 2 C1.01 2 0.02 2 -1 2 C-0.67 1.34 -0.34 0.68 0 0 Z " fill="#424347" transform="translate(729,326)"/>
<path d="M0 0 C0.66 0.33 1.32 0.66 2 1 C1.67 1.66 1.34 2.32 1 3 C0.34 2.34 -0.32 1.68 -1 1 C-0.67 0.67 -0.34 0.34 0 0 Z " fill="#404146" transform="translate(542,310)"/>
<path d="M0 0 C0.33 0 0.66 0 1 0 C1 1.65 1 3.3 1 5 C0.67 5 0.34 5 0 5 C0 3.35 0 1.7 0 0 Z " fill="#404247" transform="translate(720,299)"/>
<path d="M0 0 C0 3 0 3 0 3 Z " fill="#42454A" transform="translate(526,326)"/>
<path d="M0 0 C0.33 0.17 0.33 0.17 2 1 C1.67 1.66 1.34 2.32 1 3 C0.67 2.01 0.34 1.02 0 0 Z " fill="#424347" transform="translate(725,321)"/>
<path d="M0 0 C0 3 0 3 0 3 Z " fill="#414348" transform="translate(531,320)"/>
<path d="M0 0 C0.33 0.17 0.33 0.17 2 1 C1.67 1.66 1.34 2.32 1 3 C0.67 2.01 0.34 1.02 0 0 Z " fill="#414246" transform="translate(723,318)"/>
<path d="M0 0 C0.66 0 1.32 0 2 0 C2 0.66 2 1.32 2 2 C1.34 2 0.68 2 0 2 C0 1.34 0 0.68 0 0 Z " fill="#404146" transform="translate(715,301)"/>
<path d="M0 0 C0.66 0 1.32 0 2 0 C2 0.66 2 1.32 2 2 C1.34 2 0.68 2 0 2 C0 1.34 0 0.68 0 0 Z " fill="#414247" transform="translate(708,290)"/>
<path d="M0 0 C0.66 0 1.32 0 2 0 C2 0.66 2 1.32 2 2 C1.34 2 0.68 2 0 2 C0 1.34 0 0.68 0 0 Z " fill="#404146" transform="translate(716,286)"/>
<path d="M0 0 C1 4 1 4 1 4 Z " fill="#3F4247" transform="translate(535,282)"/>
<path d="M0 0 C0.33 0.17 0.33 0.17 2 1 C1.67 1.66 1.34 2.32 1 3 C0.67 2.01 0.34 1.02 0 0 Z " fill="#3F4247" transform="translate(531,274)"/>
<path d="M0 0 C1 4 1 4 1 4 Z " fill="#404145" transform="translate(546,269)"/>
<path d="M0 0 C0.66 0 1.32 0 2 0 C2 0.66 2 1.32 2 2 C1.34 2 0.68 2 0 2 C0 1.34 0 0.68 0 0 Z " fill="#404146" transform="translate(520,249)"/>
<path d="M0 0 C0.66 0 1.32 0 2 0 C2 0.66 2 1.32 2 2 C1.34 2 0.68 2 0 2 C0 1.34 0 0.68 0 0 Z " fill="#414348" transform="translate(524,246)"/>
<path d="M0 0 C0.33 0.16 0.33 0.16 2 1 C1.67 1.66 1.34 2.32 1 3 C0.67 2.01 0.34 1.02 0 0 Z " fill="#414148" transform="translate(730,238)"/>
<path d="M0 0 C0.33 0.16 0.33 0.16 2 1 C1.67 1.66 1.34 2.32 1 3 C0.67 2.01 0.34 1.02 0 0 Z " fill="#3F4249" transform="translate(723,226)"/>
<path d="M0 0 C0.66 0 1.32 0 2 0 C1.67 0.66 1.34 1.32 1 2 C0.67 1.34 0.34 0.68 0 0 Z " fill="#414246" transform="translate(727,324)"/>
<path d="M0 0 C0.66 0.66 1.32 1.32 2 2 C1.34 2 0.68 2 0 2 C0 1.34 0 0.68 0 0 Z " fill="#404145" transform="translate(722,321)"/>
<path d="M0 0 C0.66 0.66 1.32 1.32 2 2 C1.34 2 0.68 2 0 2 C0 1.34 0 0.68 0 0 Z " fill="#404146" transform="translate(546,320)"/>
<path d="M0 0 C0.66 0 1.32 0 2 0 C1.67 0.66 1.34 1.32 1 2 C0.67 1.34 0.34 0.68 0 0 Z " fill="#404146" transform="translate(539,314)"/>
<path d="" fill="#404146" transform="translate(0,0)"/>
<path d="" fill="#404146" transform="translate(0,0)"/>
<path d="" fill="#404146" transform="translate(0,0)"/>
<path d="" fill="#404146" transform="translate(0,0)"/>
<path d="M0 0 C0.33 0.66 0.66 1.32 1 2 C0.34 1.67 -0.32 1.34 -1 1 C-0.67 0.67 -0.34 0.34 0 0 Z " fill="#404146" transform="translate(715,290)"/>
<path d="M0 0 C0.33 0.66 0.66 1.32 1 2 C0.34 1.67 -0.32 1.34 -1 1 C-0.67 0.67 -0.34 0.34 0 0 Z " fill="#404145" transform="translate(722,285)"/>
<path d="" fill="#404145" transform="translate(0,0)"/>
<path d="" fill="#404246" transform="translate(0,0)"/>
<path d="" fill="#3F4247" transform="translate(0,0)"/>
<path d="" fill="#3F4245" transform="translate(0,0)"/>
<path d="M0 0 C0.66 0 1.32 0 2 0 C1.67 0.66 1.34 1.32 1 2 C0.67 1.34 0.34 0.68 0 0 Z " fill="#3F4146" transform="translate(525,269)"/>
<path d="" fill="#404145" transform="translate(0,0)"/>
<path d="M0 0 C0.33 0.66 0.66 1.32 1 2 C0.34 1.67 -0.32 1.34 -1 1 C-0.67 0.67 -0.34 0.34 0 0 Z " fill="#414348" transform="translate(516,260)"/>
<path d="M0 0 C0.33 0.16 0.33 0.16 2 1 C1.67 1.16 1.67 1.16 0 2 C0 1.34 0 0.68 0 0 Z " fill="#404146" transform="translate(716,253)"/>
<path d="M0 0 C0.33 0.16 0.33 0.16 2 1 C1.67 1.16 1.67 1.16 0 2 C0 1.34 0 0.68 0 0 Z " fill="#3F4146" transform="translate(730,245)"/>
<path d="M0 0 C2 1 2 1 2 1 Z " fill="#3E4249" transform="translate(703,481)"/>
<path d="" fill="#404346" transform="translate(0,0)"/>
<path d="" fill="#404447" transform="translate(0,0)"/>
<path d="" fill="#404146" transform="translate(0,0)"/>
<path d="M0 0 C2 1 2 1 2 1 Z " fill="#414348" transform="translate(703,430)"/>
<path d="M0 0 C2 1 2 1 2 1 Z " fill="#414247" transform="translate(711,419)"/>
<path d="M0 0 C2 1 2 1 2 1 Z " fill="#3F4146" transform="translate(733,340)"/>
<path d="M0 0 C2 1 2 1 2 1 Z " fill="#404145" transform="translate(722,332)"/>
<path d="M0 0 C2 1 2 1 2 1 Z " fill="#404146" transform="translate(532,332)"/>
<path d="M0 0 C2 1 2 1 2 1 Z " fill="#3F4247" transform="translate(528,331)"/>
<path d="" fill="#404146" transform="translate(0,0)"/>
<path d="" fill="#404247" transform="translate(0,0)"/>
<path d="M0 0 C2 1 2 1 2 1 Z " fill="#404146" transform="translate(544,324)"/>
<path d="" fill="#404146" transform="translate(0,0)"/>
<path d="" fill="#404146" transform="translate(0,0)"/>
<path d="M0 0 C2 1 2 1 2 1 Z " fill="#404146" transform="translate(708,294)"/>
<path d="" fill="#404145" transform="translate(0,0)"/>
<path d="" fill="#404348" transform="translate(0,0)"/>
<path d="M0 0 C2 1 2 1 2 1 Z " fill="#404145" transform="translate(708,279)"/>
<path d="" fill="#414246" transform="translate(0,0)"/>
<path d="" fill="#3F4247" transform="translate(0,0)"/>
<path d="" fill="#414246" transform="translate(0,0)"/>
<path d="" fill="#404145" transform="translate(0,0)"/>
<path d="M0 0 C2 1 2 1 2 1 Z " fill="#414348" transform="translate(529,273)"/>
<path d="M0 0 C2 1 2 1 2 1 Z " fill="#3F4146" transform="translate(730,269)"/>
<path d="" fill="#404145" transform="translate(0,0)"/>
<path d="" fill="#404047" transform="translate(0,0)"/>
<path d="" fill="#414243" transform="translate(0,0)"/>
<path d="" fill="#404145" transform="translate(0,0)"/>
<path d="M0 0 C2 1 2 1 2 1 Z " fill="#3F4146" transform="translate(716,249)"/>
<path d="M0 0 C2 1 2 1 2 1 Z " fill="#414248" transform="translate(521,247)"/>
<path d="" fill="#414246" transform="translate(0,0)"/>
<path d="" fill="#434448" transform="translate(0,0)"/>
<path d="" fill="#414247" transform="translate(0,0)"/>
<path d="M0 0 C2 1 2 1 2 1 Z " fill="#3F4146" transform="translate(531,239)"/>
<path d="" fill="#404146" transform="translate(0,0)"/>
<path d="" fill="#40434A" transform="translate(0,0)"/>
<path d="M0 0 C2 1 2 1 2 1 Z " fill="#404146" transform="translate(718,229)"/>
<path d="M0 0 C2 1 2 1 2 1 Z " fill="#424449" transform="translate(717,223)"/>
<path d="M0 0 C2 1 2 1 2 1 Z " fill="#3E4246" transform="translate(719,222)"/>
<path d="" fill="#414347" transform="translate(0,0)"/>
<path d="" fill="#46474B" transform="translate(0,0)"/>
<path d="" fill="#404447" transform="translate(0,0)"/>
<path d="" fill="#3F4146" transform="translate(0,0)"/>
<path d="" fill="#424146" transform="translate(0,0)"/>
<path d="" fill="#404145" transform="translate(0,0)"/>
<path d="" fill="#424347" transform="translate(0,0)"/>
<path d="" fill="#43464B" transform="translate(0,0)"/>
<path d="" fill="#424347" transform="translate(0,0)"/>
<path d="" fill="#424449" transform="translate(0,0)"/>
<path d="" fill="#404246" transform="translate(0,0)"/>
<path d="" fill="#3F444A" transform="translate(0,0)"/>
<path d="" fill="#434448" transform="translate(0,0)"/>
<path d="" fill="#414246" transform="translate(0,0)"/>
<path d="" fill="#404145" transform="translate(0,0)"/>
<path d="" fill="#3F4247" transform="translate(0,0)"/>
<path d="" fill="#3F4346" transform="translate(0,0)"/>
<path d="" fill="#3F4146" transform="translate(0,0)"/>
<path d="" fill="#404145" transform="translate(0,0)"/>
<path d="" fill="#404145" transform="translate(0,0)"/>
<path d="" fill="#404145" transform="translate(0,0)"/>
<path d="" fill="#404145" transform="translate(0,0)"/>
<path d="" fill="#414347" transform="translate(0,0)"/>
<path d="" fill="#424649" transform="translate(0,0)"/>
<path d="" fill="#414247" transform="translate(0,0)"/>
<path d="" fill="#3F4346" transform="translate(0,0)"/>
<path d="" fill="#3F4146" transform="translate(0,0)"/>
<path d="" fill="#404146" transform="translate(0,0)"/>
<path d="" fill="#414347" transform="translate(0,0)"/>
<path d="" fill="#424347" transform="translate(0,0)"/>
<path d="" fill="#414045" transform="translate(0,0)"/>
<path d="" fill="#46474B" transform="translate(0,0)"/>
<path d="" fill="#434449" transform="translate(0,0)"/>
<path d="" fill="#404146" transform="translate(0,0)"/>
<path d="" fill="#3F4146" transform="translate(0,0)"/>
<path d="" fill="#414247" transform="translate(0,0)"/>
<path d="" fill="#404146" transform="translate(0,0)"/>
<path d="" fill="#414349" transform="translate(0,0)"/>
<path d="" fill="#3F4247" transform="translate(0,0)"/>
<path d="" fill="#404146" transform="translate(0,0)"/>
<path d="" fill="#424449" transform="translate(0,0)"/>
<path d="" fill="#414246" transform="translate(0,0)"/>
<path d="" fill="#3F4346" transform="translate(0,0)"/>
<path d="" fill="#3F4146" transform="translate(0,0)"/>
<path d="" fill="#414348" transform="translate(0,0)"/>
<path d="" fill="#404445" transform="translate(0,0)"/>
<path d="" fill="#404247" transform="translate(0,0)"/>
<path d="" fill="#43464B" transform="translate(0,0)"/>
<path d="" fill="#404145" transform="translate(0,0)"/>
<path d="" fill="#42454A" transform="translate(0,0)"/>
<path d="" fill="#404145" transform="translate(0,0)"/>
<path d="" fill="#404145" transform="translate(0,0)"/>
<path d="" fill="#414247" transform="translate(0,0)"/>
<path d="" fill="#404145" transform="translate(0,0)"/>
<path d="" fill="#404146" transform="translate(0,0)"/>
<path d="" fill="#404146" transform="translate(0,0)"/>
<path d="" fill="#404146" transform="translate(0,0)"/>
<path d="" fill="#414247" transform="translate(0,0)"/>
<path d="" fill="#424347" transform="translate(0,0)"/>
<path d="" fill="#414247" transform="translate(0,0)"/>
<path d="" fill="#404146" transform="translate(0,0)"/>
<path d="" fill="#404145" transform="translate(0,0)"/>
<path d="" fill="#404146" transform="translate(0,0)"/>
<path d="" fill="#414246" transform="translate(0,0)"/>
<path d="" fill="#404145" transform="translate(0,0)"/>
<path d="" fill="#404146" transform="translate(0,0)"/>
<path d="" fill="#404146" transform="translate(0,0)"/>
<path d="" fill="#404145" transform="translate(0,0)"/>
<path d="" fill="#3F4247" transform="translate(0,0)"/>
<path d="" fill="#3F4146" transform="translate(0,0)"/>
<path d="" fill="#404146" transform="translate(0,0)"/>
<path d="" fill="#414348" transform="translate(0,0)"/>
<path d="" fill="#404146" transform="translate(0,0)"/>
<path d="" fill="#404145" transform="translate(0,0)"/>
<path d="" fill="#3F4247" transform="translate(0,0)"/>
<path d="" fill="#404145" transform="translate(0,0)"/>
<path d="" fill="#404145" transform="translate(0,0)"/>
<path d="" fill="#404145" transform="translate(0,0)"/>
<path d="" fill="#404145" transform="translate(0,0)"/>
<path d="" fill="#404146" transform="translate(0,0)"/>
<path d="" fill="#414246" transform="translate(0,0)"/>
<path d="" fill="#3E4246" transform="translate(0,0)"/>
<path d="" fill="#414247" transform="translate(0,0)"/>
<path d="" fill="#404146" transform="translate(0,0)"/>
<path d="" fill="#404146" transform="translate(0,0)"/>
<path d="" fill="#404247" transform="translate(0,0)"/>
<path d="" fill="#414247" transform="translate(0,0)"/>
<path d="" fill="#404145" transform="translate(0,0)"/>
<path d="" fill="#404247" transform="translate(0,0)"/>
<path d="" fill="#404247" transform="translate(0,0)"/>
<path d="" fill="#404145" transform="translate(0,0)"/>
<path d="" fill="#424449" transform="translate(0,0)"/>
<path d="" fill="#3F4247" transform="translate(0,0)"/>
<path d="" fill="#404146" transform="translate(0,0)"/>
<path d="" fill="#404048" transform="translate(0,0)"/>
<path d="" fill="#404145" transform="translate(0,0)"/>
<path d="" fill="#404146" transform="translate(0,0)"/>
<path d="" fill="#414247" transform="translate(0,0)"/>
<path d="" fill="#424146" transform="translate(0,0)"/>
<path d="" fill="#3F4346" transform="translate(0,0)"/>
<path d="" fill="#3F4247" transform="translate(0,0)"/>
<path d="" fill="#404145" transform="translate(0,0)"/>
<path d="" fill="#3F4146" transform="translate(0,0)"/>
<path d="" fill="#414247" transform="translate(0,0)"/>
<path d="" fill="#3F4247" transform="translate(0,0)"/>
<path d="" fill="#3F4447" transform="translate(0,0)"/>
<path d="" fill="#404447" transform="translate(0,0)"/>
<path d="" fill="#414247" transform="translate(0,0)"/>
<path d="" fill="#404147" transform="translate(0,0)"/>
<path d="" fill="#404247" transform="translate(0,0)"/>
<path d="" fill="#3F4146" transform="translate(0,0)"/>
<path d="" fill="#45474C" transform="translate(0,0)"/>
<path d="" fill="#3F4346" transform="translate(0,0)"/>
</svg>
